<svg width="21" height="21" viewBox="0 0 21 21" fill="none" xmlns="http://www.w3.org/2000/svg">
<path fill-rule="evenodd" clip-rule="evenodd" d="M13.2505 4.85643C13.6873 5.23958 13.7517 5.87637 13.3926 6.33095L13.3747 6.35367L13.2715 6.46196L9.02805 10.184L13.2716 13.9072L13.3747 14.0155L13.3926 14.0382C13.7517 14.4928 13.6873 15.1296 13.2505 15.5127C12.7992 15.9085 12.0973 15.9085 11.646 15.5127L6.49734 10.9966C6.34032 10.8589 6.22561 10.683 6.16685 10.4857L6.15828 10.4569L6.1249 10.2864V10.1131L6.12781 10.083C6.1476 9.87895 6.22646 9.68503 6.35517 9.52206L6.37312 9.49934L6.47626 9.39105L11.646 4.85643C12.0973 4.46062 12.7992 4.46062 13.2505 4.85643Z" fill="white"/>
</svg>
