<svg width="21" height="21" viewBox="0 0 21 21" fill="none" xmlns="http://www.w3.org/2000/svg">
<path fill-rule="evenodd" clip-rule="evenodd" d="M7.74954 15.5127C7.31272 15.1296 7.24834 14.4928 7.60737 14.0382L7.62531 14.0155L7.72846 13.9072L11.9719 10.1851L7.72843 6.46193L7.62531 6.35367L7.60737 6.33095C7.24834 5.87637 7.31272 5.23958 7.74954 4.85643C8.2008 4.46062 8.9027 4.46062 9.35396 4.85643L14.5027 9.37256C14.6597 9.51029 14.7744 9.68612 14.8331 9.88345L14.8417 9.91225L14.8751 10.0827V10.256L14.8722 10.2861C14.8524 10.4902 14.7735 10.6841 14.6448 10.8471L14.6269 10.8698L14.5237 10.9781L9.35396 15.5127C8.9027 15.9085 8.2008 15.9085 7.74954 15.5127Z" fill="white"/>
</svg>
