<svg width="270" height="203" viewBox="0 0 270 203" fill="none" xmlns="http://www.w3.org/2000/svg">
<path d="M49.9917 108.136L49.2963 110.954C50.155 111.17 52.801 112.028 53.193 110.439C53.6013 108.781 50.8492 108.352 49.9917 108.136ZM50.9402 104.29L50.3102 106.846C51.0242 107.026 53.2268 107.761 53.5838 106.315C53.9548 104.807 51.6542 104.471 50.9402 104.29ZM50.9997 96.333C47.9055 96.333 44.938 97.5622 42.7501 99.7501C40.5622 101.938 39.333 104.905 39.333 108C39.333 111.094 40.5622 114.061 42.7501 116.249C44.938 118.437 47.9055 119.666 50.9997 119.666C54.0939 119.666 57.0613 118.437 59.2493 116.249C61.4372 114.061 62.6663 111.094 62.6663 108C62.6663 104.905 61.4372 101.938 59.2493 99.7501C57.0613 97.5622 54.0939 96.333 50.9997 96.333ZM56.084 106.337C56.0597 106.785 55.888 107.212 55.5958 107.552C55.3035 107.892 54.9071 108.125 54.4682 108.217C54.7568 108.334 55.0179 108.51 55.2351 108.733C55.4523 108.956 55.6209 109.222 55.7302 109.514C55.8395 109.806 55.8872 110.117 55.8701 110.428C55.8531 110.739 55.7718 111.043 55.6313 111.321C54.9477 113.295 53.3248 113.462 51.1665 113.049L50.6427 115.172L49.3768 114.853L49.8937 112.759C49.567 112.677 49.231 112.588 48.8857 112.494L48.3665 114.598L47.1018 114.28L47.6268 112.152C47.3305 112.076 47.0307 111.994 46.7238 111.917L45.0765 111.502L45.7053 110.037C45.7053 110.037 46.6387 110.288 46.6247 110.269C46.6827 110.287 46.7439 110.294 46.8046 110.289C46.8654 110.284 46.9245 110.267 46.9785 110.238C47.0325 110.21 47.0804 110.172 47.1194 110.125C47.1584 110.078 47.1877 110.024 47.2057 109.966L48.6255 104.203C48.6437 104.027 48.5921 103.85 48.4818 103.711C48.3715 103.572 48.2112 103.482 48.0352 103.459C48.055 103.446 47.1158 103.228 47.1158 103.228L47.4542 101.861L49.1983 102.302L49.1972 102.309C49.4597 102.374 49.7303 102.437 50.0057 102.5L50.5237 100.399L51.7895 100.717L51.2808 102.778C51.6203 102.857 51.9622 102.935 52.2958 103.019L52.7998 100.972L54.0657 101.291L53.5465 103.394C55.1448 103.95 56.3138 104.786 56.084 106.337Z" fill="url(#paint0_linear_411_683)"/>
<path d="M249.096 97.6901L248.127 101.615C249.323 101.915 253.009 103.111 253.555 100.898C254.124 98.5888 250.29 97.9907 249.096 97.6901ZM250.417 92.3325L249.54 95.8929C250.534 96.1431 253.602 97.1669 254.099 95.1535C254.616 93.0524 251.412 92.5844 250.417 92.3325ZM250.5 81.25C246.19 81.25 242.057 82.962 239.01 86.0095C235.962 89.057 234.25 93.1902 234.25 97.5C234.25 101.81 235.962 105.943 239.01 108.99C242.057 112.038 246.19 113.75 250.5 113.75C254.81 113.75 258.943 112.038 261.99 108.99C265.038 105.943 266.75 101.81 266.75 97.5C266.75 93.1902 265.038 89.057 261.99 86.0095C258.943 82.962 254.81 81.25 250.5 81.25ZM257.582 95.1844C257.548 95.8079 257.309 96.4026 256.902 96.8761C256.495 97.3496 255.942 97.6752 255.331 97.8022C255.733 97.9656 256.097 98.2105 256.399 98.5215C256.702 98.8325 256.937 99.2029 257.089 99.6092C257.241 100.016 257.308 100.449 257.284 100.882C257.26 101.315 257.147 101.739 256.951 102.126C255.999 104.876 253.739 105.108 250.732 104.533L250.003 107.491L248.24 107.045L248.959 104.128C248.504 104.015 248.036 103.891 247.555 103.76L246.832 106.691L245.071 106.247L245.802 103.283C245.389 103.178 244.972 103.064 244.544 102.957L242.25 102.378L243.126 100.337C243.126 100.337 244.426 100.687 244.406 100.661C244.487 100.687 244.572 100.696 244.657 100.689C244.742 100.682 244.824 100.658 244.899 100.618C244.974 100.579 245.041 100.525 245.095 100.46C245.15 100.395 245.191 100.319 245.215 100.238L247.193 92.2122C247.218 91.9663 247.147 91.7202 246.993 91.5265C246.839 91.3328 246.616 91.2069 246.371 91.1755C246.399 91.1576 245.09 90.8538 245.09 90.8538L245.562 88.9492L247.991 89.5635L247.989 89.5732C248.355 89.6643 248.732 89.752 249.116 89.8397L249.837 86.9131L251.6 87.3568L250.892 90.2265C251.365 90.337 251.841 90.4459 252.305 90.5629L253.007 87.711L254.771 88.1562L254.047 91.0845C256.274 91.8596 257.902 93.0231 257.582 95.1844Z" fill="url(#paint1_linear_411_683)"/>
<path d="M169 65C172.866 65 176 68.134 176 72V76H189C192.866 76 196 79.134 196 83V152L195.991 152.36C195.804 156.059 192.745 159 189 159H111L110.64 158.991C110.414 158.98 110.191 158.956 109.971 158.924C109.929 158.918 109.887 158.91 109.845 158.903C109.772 158.891 109.699 158.88 109.627 158.865C109.569 158.854 109.512 158.84 109.454 158.827C109.413 158.818 109.371 158.809 109.33 158.799C109.263 158.782 109.197 158.764 109.131 158.746C109.085 158.733 109.038 158.721 108.992 158.707C108.934 158.69 108.877 158.671 108.82 158.652C108.779 158.639 108.738 158.626 108.697 158.611C108.639 158.591 108.581 158.57 108.523 158.548C108.473 158.529 108.422 158.51 108.372 158.489C108.329 158.472 108.286 158.453 108.243 158.435C108.19 158.412 108.137 158.389 108.085 158.365C108.034 158.342 107.984 158.317 107.934 158.293C107.885 158.269 107.838 158.245 107.79 158.221C107.741 158.196 107.693 158.17 107.646 158.144C107.6 158.118 107.554 158.093 107.509 158.067C107.465 158.042 107.421 158.016 107.377 157.989C107.328 157.96 107.279 157.93 107.231 157.899C107.18 157.866 107.13 157.832 107.079 157.798C107.046 157.776 107.013 157.753 106.98 157.73C106.924 157.691 106.869 157.65 106.814 157.609C106.781 157.584 106.747 157.559 106.714 157.533C106.674 157.502 106.635 157.471 106.596 157.439C106.543 157.396 106.49 157.353 106.438 157.309C106.415 157.289 106.392 157.268 106.369 157.248C106.302 157.189 106.236 157.129 106.172 157.067C106.16 157.056 106.149 157.045 106.138 157.034C106.084 156.983 106.031 156.93 105.979 156.877C105.95 156.847 105.921 156.816 105.892 156.785C105.844 156.734 105.797 156.682 105.751 156.63C105.729 156.605 105.707 156.581 105.686 156.556C105.641 156.503 105.597 156.449 105.554 156.396C105.524 156.359 105.495 156.323 105.467 156.286C105.437 156.248 105.408 156.209 105.379 156.17C105.343 156.121 105.306 156.073 105.271 156.023C105.238 155.976 105.206 155.928 105.174 155.88C105.152 155.846 105.129 155.813 105.107 155.779C105.067 155.717 105.029 155.653 104.991 155.59C104.972 155.557 104.952 155.525 104.933 155.492C104.902 155.439 104.873 155.386 104.844 155.332C104.822 155.292 104.8 155.252 104.779 155.211C104.748 155.15 104.717 155.088 104.688 155.025C104.671 154.992 104.654 154.958 104.639 154.924C104.598 154.836 104.559 154.746 104.522 154.656C104.521 154.653 104.519 154.649 104.518 154.646L104.493 154.587C104.47 154.528 104.449 154.469 104.427 154.409C104.415 154.378 104.404 154.347 104.393 154.315C104.332 154.141 104.279 153.964 104.231 153.784C104.222 153.749 104.211 153.714 104.202 153.679C104.097 153.253 104.032 152.812 104.009 152.36L104 152V72C104 68.134 107.134 65 111 65H169ZM111 77C107.686 77 105 79.6863 105 83V152C105 155.314 107.686 158 111 158H189C192.314 158 195 155.314 195 152V83C195 79.6863 192.314 77 189 77H111ZM111 66C107.686 66 105 68.6863 105 72V79.3945C106.167 77.4572 108.244 76.1303 110.64 76.0088L111 76H175V72C175 68.6863 172.314 66 169 66H111Z" fill="#848484"/>
<ellipse cx="129.227" cy="89" rx="2.96774" ry="3" fill="#D9D9D9"/>
<ellipse cx="129.227" cy="145" rx="2.96774" ry="3" fill="#494BEB"/>
<ellipse cx="151.979" cy="89" rx="2.96774" ry="3" fill="#494BEB"/>
<ellipse cx="151.979" cy="145" rx="2.96774" ry="3" fill="#D9D9D9"/>
<path d="M128.238 90.5L112.904 106V129.5L129.227 145.5" stroke="url(#paint2_linear_411_683)"/>
<path d="M152.968 90.5L168.302 106V129.5L151.979 145.5" stroke="url(#paint3_linear_411_683)"/>
<ellipse cx="140.108" cy="116.5" rx="14.3441" ry="14.5" fill="white"/>
<path d="M140.603 96.5C152.341 96.5001 161.866 106.121 161.866 118C161.866 129.879 152.341 139.5 140.603 139.5C128.864 139.5 119.339 129.879 119.339 118C119.339 106.121 128.864 96.5 140.603 96.5Z" stroke="#2F2F30"/>
<path d="M186.5 112.5H195.5V124.5H186.5C183.186 124.5 180.5 121.814 180.5 118.5C180.5 115.186 183.186 112.5 186.5 112.5Z" stroke="#848485"/>
<rect x="187" y="117" width="3" height="3" fill="#838385"/>
<path d="M140.096 117.69L139.127 121.615C140.323 121.915 144.009 123.111 144.555 120.898C145.124 118.589 141.29 117.991 140.096 117.69ZM141.417 112.332L140.54 115.893C141.534 116.143 144.602 117.167 145.099 115.153C145.616 113.052 142.412 112.584 141.417 112.332ZM141.5 101.25C137.19 101.25 133.057 102.962 130.01 106.01C126.962 109.057 125.25 113.19 125.25 117.5C125.25 121.81 126.962 125.943 130.01 128.99C133.057 132.038 137.19 133.75 141.5 133.75C145.81 133.75 149.943 132.038 152.99 128.99C156.038 125.943 157.75 121.81 157.75 117.5C157.75 113.19 156.038 109.057 152.99 106.01C149.943 102.962 145.81 101.25 141.5 101.25ZM148.582 115.184C148.548 115.808 148.309 116.403 147.902 116.876C147.495 117.35 146.942 117.675 146.331 117.802C146.733 117.966 147.097 118.211 147.399 118.522C147.702 118.833 147.937 119.203 148.089 119.609C148.241 120.016 148.308 120.449 148.284 120.882C148.26 121.315 148.147 121.739 147.951 122.126C146.999 124.876 144.739 125.108 141.732 124.533L141.003 127.491L139.24 127.045L139.959 124.128C139.504 124.015 139.036 123.891 138.555 123.76L137.832 126.691L136.071 126.247L136.802 123.283C136.389 123.178 135.972 123.064 135.544 122.957L133.25 122.378L134.126 120.337C134.126 120.337 135.426 120.687 135.406 120.661C135.487 120.687 135.572 120.696 135.657 120.689C135.742 120.682 135.824 120.658 135.899 120.618C135.974 120.579 136.041 120.525 136.095 120.46C136.15 120.395 136.191 120.319 136.215 120.238L138.193 112.212C138.218 111.966 138.147 111.72 137.993 111.527C137.839 111.333 137.616 111.207 137.371 111.175C137.399 111.158 136.09 110.854 136.09 110.854L136.562 108.949L138.991 109.563L138.989 109.573C139.355 109.664 139.732 109.752 140.116 109.84L140.837 106.913L142.6 107.357L141.892 110.226C142.365 110.337 142.841 110.446 143.305 110.563L144.007 107.711L145.771 108.156L145.047 111.084C147.274 111.86 148.902 113.023 148.582 115.184Z" fill="url(#paint4_linear_411_683)"/>
<g filter="url(#filter0_f_411_683)">
<path d="M99.1603 101.817L97.5462 108.358C99.5395 108.859 105.682 110.852 106.592 107.163C107.54 103.315 101.151 102.318 99.1603 101.817ZM101.362 92.8878L99.8997 98.8218C101.557 99.2389 106.671 100.945 107.499 97.5895C108.361 94.0876 103.02 93.3076 101.362 92.8878ZM101.5 74.417C94.3174 74.417 87.4286 77.2704 82.3495 82.3495C77.2704 87.4286 74.417 94.3174 74.417 101.5C74.417 108.683 77.2704 115.572 82.3495 120.651C87.4286 125.73 94.3174 128.584 101.5 128.584C108.683 128.584 115.572 125.73 120.651 120.651C125.73 115.572 128.584 108.683 128.584 101.5C128.584 94.3174 125.73 87.4286 120.651 82.3495C115.572 77.2704 108.683 74.417 101.5 74.417ZM113.303 97.641C113.247 98.6801 112.848 99.6714 112.17 100.461C111.491 101.25 110.571 101.792 109.552 102.004C110.222 102.276 110.828 102.685 111.333 103.203C111.837 103.721 112.228 104.338 112.482 105.016C112.736 105.693 112.846 106.415 112.807 107.137C112.767 107.859 112.578 108.565 112.252 109.211C110.665 113.793 106.898 114.181 101.888 113.222L100.672 118.151L97.733 117.409L98.9328 112.548C98.1745 112.358 97.3945 112.152 96.5928 111.933L95.3876 116.819L92.4518 116.079L93.6705 111.139C92.9826 110.963 92.2866 110.774 91.5743 110.595L87.7501 109.631L89.2099 106.229C89.2099 106.229 91.3766 106.811 91.3441 106.768C91.4788 106.811 91.6208 106.827 91.7618 106.815C91.9028 106.803 92.04 106.763 92.1655 106.698C92.2909 106.632 92.4021 106.542 92.4926 106.434C92.5832 106.325 92.6512 106.199 92.6928 106.064L95.9889 92.6874C96.0311 92.2775 95.9114 91.8674 95.6553 91.5445C95.3993 91.2217 95.0272 91.0117 94.6185 90.9595C94.6645 90.9297 92.4843 90.4232 92.4843 90.4232L93.2697 87.2491L97.3187 88.2728L97.3159 88.2891C97.9253 88.4407 98.5537 88.587 99.1928 88.7332L100.395 83.8555L103.334 84.5949L102.153 89.3778C102.941 89.562 103.735 89.7434 104.509 89.9384L105.679 85.1853L108.618 85.9274L107.413 90.8078C111.123 92.0997 113.837 94.0389 113.303 97.641Z" fill="#4B55E0"/>
</g>
<path d="M217.28 159.098L216.784 161.11C217.397 161.264 219.287 161.878 219.567 160.743C219.859 159.559 217.893 159.252 217.28 159.098ZM217.958 156.35L217.508 158.176C218.018 158.304 219.591 158.829 219.846 157.797C220.111 156.719 218.468 156.479 217.958 156.35ZM218 150.667C215.79 150.667 213.671 151.545 212.108 153.108C210.545 154.671 209.667 156.79 209.667 159C209.667 161.21 210.545 163.33 212.108 164.893C213.671 166.456 215.79 167.334 218 167.334C220.21 167.334 222.33 166.456 223.893 164.893C225.456 163.33 226.334 161.21 226.334 159C226.334 156.79 225.456 154.671 223.893 153.108C222.33 151.545 220.21 150.667 218 150.667ZM221.632 157.813C221.615 158.133 221.492 158.438 221.283 158.68C221.075 158.923 220.791 159.09 220.478 159.155C220.684 159.239 220.87 159.365 221.026 159.524C221.181 159.684 221.301 159.874 221.379 160.082C221.457 160.29 221.491 160.513 221.479 160.735C221.467 160.957 221.409 161.174 221.309 161.373C220.82 162.783 219.661 162.902 218.119 162.607L217.745 164.124L216.841 163.895L217.21 162.399C216.977 162.341 216.737 162.278 216.49 162.21L216.119 163.714L215.216 163.486L215.591 161.966C215.379 161.912 215.165 161.854 214.946 161.799L213.769 161.502L214.219 160.455C214.219 160.455 214.885 160.634 214.875 160.621C214.917 160.634 214.96 160.639 215.004 160.636C215.047 160.632 215.089 160.62 215.128 160.599C215.167 160.579 215.201 160.552 215.229 160.518C215.257 160.485 215.278 160.446 215.29 160.404L216.304 156.289C216.317 156.163 216.281 156.036 216.202 155.937C216.123 155.838 216.009 155.773 215.883 155.757C215.897 155.748 215.226 155.592 215.226 155.592L215.468 154.615L216.714 154.93L216.713 154.935C216.9 154.982 217.094 155.027 217.29 155.072L217.66 153.571L218.564 153.799L218.201 155.27C218.444 155.327 218.688 155.383 218.926 155.443L219.286 153.98L220.19 154.209L219.819 155.71C220.961 156.108 221.796 156.704 221.632 157.813Z" fill="url(#paint5_linear_411_683)"/>
<defs>
<filter id="filter0_f_411_683" x="-5.2" y="-5.2" width="213.4" height="213.4" filterUnits="userSpaceOnUse" color-interpolation-filters="sRGB">
<feFlood flood-opacity="0" result="BackgroundImageFix"/>
<feBlend mode="normal" in="SourceGraphic" in2="BackgroundImageFix" result="shape"/>
<feGaussianBlur stdDeviation="37.1" result="effect1_foregroundBlur_411_683"/>
</filter>
<linearGradient id="paint0_linear_411_683" x1="50.9997" y1="96.333" x2="50.9997" y2="119.666" gradientUnits="userSpaceOnUse">
<stop stop-color="white" stop-opacity="0.18"/>
<stop offset="1" stop-color="white" stop-opacity="0.03"/>
</linearGradient>
<linearGradient id="paint1_linear_411_683" x1="250.5" y1="81.25" x2="250.5" y2="113.75" gradientUnits="userSpaceOnUse">
<stop stop-color="white" stop-opacity="0.48"/>
<stop offset="1" stop-color="white" stop-opacity="0.06"/>
</linearGradient>
<linearGradient id="paint2_linear_411_683" x1="121.066" y1="90.5" x2="121.066" y2="145.5" gradientUnits="userSpaceOnUse">
<stop stop-color="#525DF6" stop-opacity="0"/>
<stop offset="0.524038" stop-color="#525DF6"/>
<stop offset="1" stop-color="#525DF6" stop-opacity="0"/>
</linearGradient>
<linearGradient id="paint3_linear_411_683" x1="160.14" y1="90.5" x2="160.14" y2="145.5" gradientUnits="userSpaceOnUse">
<stop stop-color="#525DF6" stop-opacity="0"/>
<stop offset="0.524038" stop-color="#525DF6"/>
<stop offset="1" stop-color="#525DF6" stop-opacity="0"/>
</linearGradient>
<linearGradient id="paint4_linear_411_683" x1="141.5" y1="101.25" x2="141.5" y2="133.75" gradientUnits="userSpaceOnUse">
<stop stop-color="#3C3B50"/>
<stop offset="1" stop-color="#0D0E23"/>
</linearGradient>
<linearGradient id="paint5_linear_411_683" x1="218" y1="150.667" x2="218" y2="167.334" gradientUnits="userSpaceOnUse">
<stop stop-color="white" stop-opacity="0.31"/>
<stop offset="1" stop-color="white" stop-opacity="0.06"/>
</linearGradient>
</defs>
</svg>
