<svg width="16" height="16" viewBox="0 0 16 16" fill="none" xmlns="http://www.w3.org/2000/svg">
<path fill-rule="evenodd" clip-rule="evenodd" d="M5.79963 12.2625C5.45018 11.956 5.39867 11.4466 5.68589 11.0829L5.70025 11.0647L5.78277 10.9781L9.17756 8.00046L5.78274 5.02189L5.70025 4.93528L5.68589 4.9171C5.39867 4.55344 5.45018 4.04401 5.79963 3.73749C6.16064 3.42084 6.72216 3.42084 7.08316 3.73749L11.2021 7.35039C11.3277 7.46057 11.4195 7.60124 11.4665 7.7591L11.4734 7.78214L11.5001 7.91852V8.05717L11.4977 8.08123C11.4819 8.24449 11.4188 8.39963 11.3159 8.53001L11.3015 8.54819L11.219 8.63481L7.08316 12.2625C6.72216 12.5792 6.16064 12.5792 5.79963 12.2625Z" fill="white"/>
</svg>
