<svg width="16" height="16" viewBox="0 0 16 16" fill="none" xmlns="http://www.w3.org/2000/svg">
<g clip-path="url(#clip0_532_2393)">
<path d="M15.3271 14.2534C15.705 14.292 15.9998 14.6115 16 14.9995C16 15.3877 15.7051 15.707 15.3271 15.7456L15.25 15.7495H0.75C0.335786 15.7495 0 15.4137 0 14.9995C0.000204541 14.5855 0.335913 14.2495 0.75 14.2495H15.25L15.3271 14.2534ZM2 4.69971C2.44171 4.69971 2.79961 5.05785 2.7998 5.49951V11.4995C2.7998 11.9413 2.44183 12.2993 2 12.2993C1.55817 12.2993 1.2002 11.9413 1.2002 11.4995V5.49951C1.20039 5.05785 1.55829 4.69971 2 4.69971ZM8 0.399902C8.44176 0.399902 8.7997 0.757969 8.7998 1.19971V11.4995C8.7998 11.9413 8.44183 12.2993 8 12.2993C7.55817 12.2993 7.2002 11.9413 7.2002 11.4995V1.19971C7.2003 0.757969 7.55824 0.399902 8 0.399902ZM14 3.69971C14.4417 3.69971 14.7996 4.05785 14.7998 4.49951V11.4995C14.7998 11.9413 14.4418 12.2993 14 12.2993C13.5582 12.2993 13.2002 11.9413 13.2002 11.4995V4.49951C13.2004 4.05785 13.5583 3.69971 14 3.69971Z" fill="white"/>
</g>
<defs>
<clipPath id="clip0_532_2393">
<rect width="16" height="16" fill="white"/>
</clipPath>
</defs>
</svg>
