<svg width="107" height="29" viewBox="0 0 107 29" fill="none" xmlns="http://www.w3.org/2000/svg">
<rect width="107" height="29" fill="#090909"/>
<g clip-path="url(#clip0_160_416)">
<rect width="1920" height="1727" transform="translate(-117 -22)" fill="black"/>
<g filter="url(#filter0_i_160_416)">
<rect width="1920" height="72" transform="translate(-117 -22)" fill="black"/>
<g clip-path="url(#clip1_160_416)">
<path d="M107 10.1467V6.83175L96.1921 12.0138L85.6719 6.97149L85.6832 6.96373L85.3804 6.8201V10.1467L92.732 13.6713L85.3804 17.1958V20.5147L85.6757 20.3749H85.6719L96.1883 15.3287L106.708 20.3749L106.697 20.3788L107 20.5224V17.1958L99.6483 13.6713L107 10.1467Z" fill="white"/>
<path d="M34.2748 8.68331H32.0223V20.3322H39.4421V18.2633H34.2748V8.68331Z" fill="white"/>
<path d="M47.638 15.0648C47.638 16.1905 47.4147 17.0289 46.9642 17.5801C46.5137 18.1313 45.8853 18.4069 45.079 18.4069C44.2726 18.4069 43.6291 18.1313 43.1786 17.5801C42.7281 17.0289 42.5048 16.1905 42.5048 15.0648V8.68331H40.2523V15.6237C40.2523 16.6213 40.4454 17.487 40.8277 18.2245C41.2101 18.962 41.7628 19.5287 42.4896 19.9285C43.2127 20.3283 44.0758 20.5263 45.0827 20.5263C46.0897 20.5263 46.9339 20.3283 47.6607 19.9285C48.3876 19.5287 48.9403 18.962 49.3226 18.2245C49.705 17.487 49.898 16.6213 49.898 15.6237V8.68331H47.6456V15.0648H47.638Z" fill="white"/>
<path d="M55.4629 11.0705C55.9171 10.7522 56.4358 10.5931 57.015 10.5931C57.5639 10.5931 58.0371 10.7406 58.4346 11.0395C58.8321 11.3384 59.15 11.7498 59.3885 12.2816L61.2662 11.1676C60.9861 10.3835 60.475 9.73913 59.7292 9.23451C58.9835 8.72989 58.0939 8.47758 57.0604 8.47758C56.0269 8.47758 55.1373 8.72601 54.3045 9.22674C53.4716 9.72748 52.813 10.4301 52.3322 11.3423C51.8514 12.2545 51.6091 13.3064 51.6091 14.4942C51.6091 15.682 51.8514 16.7378 52.3397 17.6539C52.8281 18.5699 53.483 19.2803 54.312 19.7771C55.1411 20.2779 56.0572 20.5263 57.0604 20.5263C58.0636 20.5263 58.9835 20.274 59.7292 19.7694C60.475 19.2648 60.9861 18.6204 61.2662 17.8363L59.3885 16.7223C59.15 17.2541 58.8321 17.6655 58.4346 17.9644C58.0371 18.2633 57.5639 18.4108 57.015 18.4108C56.4358 18.4108 55.9171 18.2516 55.4629 17.9333C55.0086 17.615 54.649 17.157 54.384 16.5631C54.119 15.9692 53.9865 15.2783 53.9865 14.4942C53.9865 13.7101 54.119 13.023 54.384 12.433C54.649 11.843 55.0086 11.3888 55.4629 11.0705Z" fill="white"/>
<path d="M72.5056 8.68331H69.6967L64.9798 14.1099V8.68331H62.7274V20.3322H64.9798V16.9125L66.5319 15.2084L70.0677 20.3322H72.9713L68.1446 13.4422L72.5056 8.68331Z" fill="white"/>
<path d="M78.4679 13.4578L75.7953 8.68331H73.1416L77.2717 15.7324V20.3322H79.5203V15.748L83.4801 8.68331H81.0421L78.4679 13.4578Z" fill="white"/>
<path d="M8.28668 10.9774L0.904759 7.43341C0.484557 7.23156 0 7.54598 0 8.02342V18.0032L2.17672 16.959C2.46064 16.8232 2.64613 16.5282 2.64613 16.206V11.2685L9.38829 14.5019L0 19.0008V20.8834C0 21.5161 0.325562 22.0984 0.859331 22.4128L11.5272 28.7283C12.1328 29.0893 12.8824 29.0893 13.4881 28.7283L14.0635 28.3867C14.1922 28.3556 14.3171 28.3052 14.4421 28.2314L24.1824 22.4904C24.701 22.1838 25.019 21.6171 25.019 21.0076V19.1056L8.28668 10.9774ZM12.3297 26.0732L3.00955 20.5535L12.5114 15.9964L12.3335 26.0693L12.3297 26.0732Z" fill="white"/>
<path d="M4.308 7.67795L12.5114 2.82198L22.0133 8.44653L13.6281 12.4679L16.668 14.0051L17.8112 14.5835L25.0266 18.2322V10.9968V8.12046C25.0266 7.48775 24.6972 6.9055 24.1673 6.59108L13.4919 0.267834C12.8862 -0.0931615 12.1366 -0.0931615 11.5309 0.267834L1.01831 6.49404L3.55845 7.71289C3.79694 7.82934 4.07708 7.81381 4.308 7.67795Z" fill="white"/>
</g>
</g>
</g>
<defs>
<filter id="filter0_i_160_416" x="-117" y="-22" width="1920" height="72" filterUnits="userSpaceOnUse" color-interpolation-filters="sRGB">
<feFlood flood-opacity="0" result="BackgroundImageFix"/>
<feBlend mode="normal" in="SourceGraphic" in2="BackgroundImageFix" result="shape"/>
<feColorMatrix in="SourceAlpha" type="matrix" values="0 0 0 0 0 0 0 0 0 0 0 0 0 0 0 0 0 0 127 0" result="hardAlpha"/>
<feOffset dy="-1"/>
<feComposite in2="hardAlpha" operator="arithmetic" k2="-1" k3="1"/>
<feColorMatrix type="matrix" values="0 0 0 0 1 0 0 0 0 1 0 0 0 0 1 0 0 0 0.1 0"/>
<feBlend mode="normal" in2="shape" result="effect1_innerShadow_160_416"/>
</filter>
<clipPath id="clip0_160_416">
<rect width="1920" height="1727" fill="white" transform="translate(-117 -22)"/>
</clipPath>
<clipPath id="clip1_160_416">
<rect width="107" height="29" fill="white"/>
</clipPath>
</defs>
</svg>
