<svg width="32" height="32" viewBox="0 0 32 32" fill="none" xmlns="http://www.w3.org/2000/svg">
<circle cx="16" cy="16" r="16" fill="black"/>
<path d="M8 11.8105C8.00017 11.5246 8.29028 11.3364 8.54199 11.457L12.9668 13.5811L22.9951 18.4531V19.5928C22.9951 19.958 22.8049 20.2976 22.4941 20.4814L16.6562 23.9229C16.5814 23.9671 16.5059 23.997 16.4287 24.0156L16.084 24.2207C15.7211 24.4369 15.2721 24.4369 14.9092 24.2207L8.51465 20.4355C8.19483 20.2471 8 19.8977 8 19.5186V18.3906L13.627 15.6934L9.58594 13.7559V16.7148C9.58594 16.9079 9.47474 17.0845 9.30469 17.166L8 17.792V11.8105ZM9.80371 19.3213L15.3896 22.6289L15.3926 22.627L15.499 16.5898L9.80371 19.3213ZM14.9111 7.16211C15.2742 6.94574 15.7239 6.94574 16.0869 7.16211L22.4854 10.9521C22.8029 11.1406 23 11.49 23 11.8691V17.9297L18.6758 15.7422L17.9902 15.3955L16.168 14.4746L21.1943 12.0645L15.499 8.69336L10.582 11.6035C10.4437 11.6849 10.2757 11.6947 10.1328 11.625L8.61035 10.8936L14.9111 7.16211Z" fill="url(#paint0_linear_651_2460)"/>
<defs>
<linearGradient id="paint0_linear_651_2460" x1="15.8052" y1="7" x2="15.5" y2="24" gradientUnits="userSpaceOnUse">
<stop stop-color="white"/>
<stop offset="1" stop-color="#9F9F9F"/>
</linearGradient>
</defs>
</svg>
