<svg width="20" height="20" viewBox="0 0 20 20" fill="none" xmlns="http://www.w3.org/2000/svg">
<circle cx="10" cy="10" r="10" fill="white"/>
<path d="M7.1511 13.3909C7.07474 13.3315 7.06625 13.2679 7.12565 13.2L7.9911 12.1309C8.0505 12.063 8.10565 12.0545 8.15656 12.1055C8.63171 12.4958 9.1408 12.7206 9.68383 12.78V10.6036C8.93716 10.4848 8.35171 10.2091 7.92747 9.77637C7.50322 9.33515 7.2911 8.77515 7.2911 8.09636C7.2911 7.38364 7.51171 6.78546 7.95292 6.30182C8.39413 5.8097 8.9711 5.51697 9.68383 5.42364V4.67273C9.68383 4.58788 9.72625 4.54546 9.8111 4.54546H10.3966C10.4814 4.54546 10.5238 4.58788 10.5238 4.67273V5.42364C11.2705 5.48303 11.945 5.71212 12.5475 6.11091C12.6153 6.16182 12.6238 6.22546 12.5729 6.30182L11.8347 7.37091C11.7838 7.43879 11.7244 7.45152 11.6566 7.40909C11.2663 7.17152 10.8887 7.02303 10.5238 6.96364V9.01273C11.3214 9.14 11.9196 9.42 12.3184 9.85273C12.7256 10.2855 12.9293 10.8497 12.9293 11.5455C12.9293 12.2836 12.7129 12.8988 12.2802 13.3909C11.856 13.8745 11.2705 14.1715 10.5238 14.2818V15.0582C10.5238 15.143 10.4814 15.1855 10.3966 15.1855H9.8111C9.72625 15.1855 9.68383 15.143 9.68383 15.0582V14.32C8.72504 14.2691 7.8808 13.9594 7.1511 13.3909ZM9.68383 8.84727V7.02727C9.25959 7.18849 9.04747 7.49818 9.04747 7.95636C9.04747 8.39758 9.25959 8.69455 9.68383 8.84727ZM10.5238 12.6909C10.9566 12.5212 11.1729 12.1691 11.1729 11.6345C11.1729 11.2273 10.9566 10.943 10.5238 10.7818V12.6909Z" fill="#2E2740"/>
</svg>
