<svg width="244" height="256" viewBox="0 0 244 256" fill="none" xmlns="http://www.w3.org/2000/svg">
<g filter="url(#filter0_f_137_293)">
<ellipse cx="136.802" cy="150.642" rx="30.9101" ry="29.1438" transform="rotate(-9.76025 136.802 150.642)" fill="#FF9009"/>
</g>
<path d="M132.951 48.0398C136.244 52.3256 117.401 72.296 90.8682 92.6571C64.3296 113.011 40.1551 126.041 36.8619 121.755C33.5687 117.47 52.4115 97.4991 78.9447 77.138C105.483 56.7838 129.658 43.754 132.951 48.0398Z" fill="url(#paint0_linear_137_293)"/>
<path d="M108.121 78.5592C115.562 72.0569 121.743 66.0065 126.121 60.9876C122.718 58.0162 119.309 55.2516 115.9 52.6883C110.015 55.7802 102.98 60.0676 95.3389 65.2607C99.4874 69.3521 103.762 73.793 108.116 78.5523L108.121 78.5592Z" fill="url(#paint1_linear_137_293)"/>
<path d="M51.2504 118.458C57.2485 115.512 64.6971 111.094 72.9067 105.583C69.4108 100.157 66.2037 94.888 63.3094 89.8343C56.3115 95.87 50.3341 101.55 45.8222 106.438C47.4264 110.392 49.2436 114.403 51.2504 118.458Z" fill="url(#paint2_linear_137_293)"/>
<path style="mix-blend-mode:multiply" opacity="0.28" d="M79.3293 77.6325C52.7907 97.9867 33.5688 117.469 36.862 121.755C38.041 123.288 41.8843 122.607 47.555 120.162C45.7569 120.496 44.5139 120.32 43.9576 119.589C41.0218 115.764 58.0697 98.551 81.5643 80.5261C105.059 62.5012 126.095 50.4986 129.038 54.3185C129.601 55.0441 129.445 56.2832 128.658 57.9338C132.478 53.0903 134.132 49.5598 132.953 48.0266C129.659 43.7408 105.869 57.2659 79.3309 77.6201L79.3293 77.6325Z" fill="url(#paint3_linear_137_293)"/>
<path d="M36.0654 118.685L123.513 134.151L130.161 46.5054" stroke="#C5CAE9" stroke-width="1.5" stroke-miterlimit="10"/>
<path d="M53.7791 96.8838L123.401 134.236L104.687 58.3065" stroke="#C5CAE9" stroke-width="1.5" stroke-miterlimit="10"/>
<path d="M123.401 134.237L68.7991 63.8945" stroke="#C5CAE9" stroke-width="1.5" stroke-miterlimit="10"/>
<path d="M120.627 51.6333C126.706 48.4464 130.965 46.9626 132.532 47.7139C105.685 24.7507 70.9546 19.3998 48.0793 36.9551C66.027 23.1912 95.4951 30.0443 120.639 51.6349L120.627 51.6333Z" fill="url(#paint4_linear_137_293)"/>
<path d="M43.5179 110.785C29.1381 80.9391 30.1261 50.7132 48.0738 36.9493C25.1931 54.4977 21.3927 89.4109 36.659 121.263C36.3447 119.561 38.8726 115.833 43.5233 110.792L43.5179 110.785Z" fill="url(#paint5_linear_137_293)"/>
<path d="M48.0669 36.9541C56.1834 30.732 76.5885 42.9768 98.1951 65.5693C102.345 62.7059 106.291 60.1125 109.931 57.8457C113.9 55.3686 117.499 53.2792 120.627 51.6339C95.4881 30.0503 66.0146 23.1902 48.0669 36.9541Z" fill="url(#paint6_linear_137_293)"/>
<path d="M43.5182 110.785C45.9094 108.191 48.8603 105.252 52.2839 102.058C55.4221 99.1296 58.9456 95.9921 62.7867 92.731C46.5302 66.0415 39.9575 43.1713 48.074 36.9493C30.1264 50.7132 29.1507 80.9406 43.5182 110.785Z" fill="url(#paint7_linear_137_293)"/>
<path d="M48.0671 36.955C39.9506 43.1771 46.5233 66.0472 62.7798 92.7367C65.9954 89.9947 69.4356 87.1678 73.0479 84.2743C75.344 82.4362 77.7175 80.5826 80.1491 78.7174C82.5808 76.8523 84.9867 75.0406 87.3586 73.3001C91.0776 70.5586 94.7144 67.9703 98.1884 65.5756C76.5818 42.983 56.1836 30.7329 48.0601 36.9604L48.0671 36.955Z" fill="url(#paint8_linear_137_293)"/>
<g filter="url(#filter1_d_137_293)">
<path d="M158.612 176.776C171.567 166.228 173.519 147.176 162.972 134.221C152.424 121.266 133.372 119.314 120.417 129.861C107.462 140.409 105.51 159.461 116.057 172.416C126.605 185.371 145.657 187.323 158.612 176.776Z" fill="url(#paint9_linear_137_293)"/>
<path d="M156.023 173.595C167.221 164.477 168.909 148.009 159.791 136.81C150.674 125.612 134.205 123.925 123.007 133.042C111.809 142.159 110.122 158.628 119.239 169.826C128.356 181.025 144.825 182.712 156.023 173.595Z" fill="url(#paint10_linear_137_293)"/>
<path d="M145.777 147.651C146.574 145.781 146.379 143.743 144.985 142.03C142.873 139.436 139.359 139.368 135.232 142.578L133.021 139.862L130.843 141.635L133.055 144.351L130.461 146.463L128.25 143.747L126.072 145.52L128.283 148.236L122.892 152.625L125.322 155.61L128.952 152.655L138.029 163.805L134.4 166.76L136.83 169.745L142.221 165.356L144.433 168.072L146.61 166.299L144.399 163.583L146.993 161.471L149.204 164.187L151.382 162.414L149.17 159.698L149.317 159.579C153.819 155.913 154.774 152.288 152.364 149.327C150.61 147.174 148.192 146.702 145.785 147.644L145.777 147.651ZM141.435 145.815C142.53 147.161 142.036 148.703 140.103 150.277L136.163 153.484L132.876 149.447L136.816 146.239C138.749 144.666 140.339 144.47 141.435 145.815ZM146.578 156.831L141.954 160.596L138.508 156.363L143.132 152.598C145.187 150.925 146.846 150.713 148.022 152.157C149.197 153.601 148.634 155.158 146.578 156.831Z" fill="white"/>
<path style="mix-blend-mode:overlay" opacity="0.31" d="M126.305 180.537C133.75 173.69 138.825 164.214 139.929 153.36C141.04 142.514 138 132.2 132.099 123.985C120.133 127.013 110.758 137.236 109.419 150.234C108.08 163.232 115.188 175.145 126.305 180.537Z" fill="url(#paint11_linear_137_293)"/>
</g>
<defs>
<filter id="filter0_f_137_293" x="29.936" y="45.4414" width="213.731" height="210.401" filterUnits="userSpaceOnUse" color-interpolation-filters="sRGB">
<feFlood flood-opacity="0" result="BackgroundImageFix"/>
<feBlend mode="normal" in="SourceGraphic" in2="BackgroundImageFix" result="shape"/>
<feGaussianBlur stdDeviation="38" result="effect1_foregroundBlur_137_293"/>
</filter>
<filter id="filter1_d_137_293" x="101.257" y="119.069" width="76.5066" height="76.499" filterUnits="userSpaceOnUse" color-interpolation-filters="sRGB">
<feFlood flood-opacity="0" result="BackgroundImageFix"/>
<feColorMatrix in="SourceAlpha" type="matrix" values="0 0 0 0 0 0 0 0 0 0 0 0 0 0 0 0 0 0 127 0" result="hardAlpha"/>
<feOffset dy="4"/>
<feGaussianBlur stdDeviation="4"/>
<feComposite in2="hardAlpha" operator="out"/>
<feColorMatrix type="matrix" values="0 0 0 0 1 0 0 0 0 1 0 0 0 0 1 0 0 0 0.37 0"/>
<feBlend mode="normal" in2="BackgroundImageFix" result="effect1_dropShadow_137_293"/>
<feBlend mode="normal" in="SourceGraphic" in2="effect1_dropShadow_137_293" result="shape"/>
</filter>
<linearGradient id="paint0_linear_137_293" x1="90.9196" y1="92.6247" x2="78.9122" y2="77.1558" gradientUnits="userSpaceOnUse">
<stop stop-color="#4E267E"/>
<stop offset="1" stop-color="#101019"/>
</linearGradient>
<linearGradient id="paint1_linear_137_293" x1="117.232" y1="71.4869" x2="105.99" y2="57.004" gradientUnits="userSpaceOnUse">
<stop stop-color="white"/>
<stop offset="0.81" stop-color="#808080"/>
</linearGradient>
<linearGradient id="paint2_linear_137_293" x1="63.8514" y1="112.612" x2="52.6147" y2="98.1359" gradientUnits="userSpaceOnUse">
<stop stop-color="white"/>
<stop offset="0.81" stop-color="#8A8A8A"/>
</linearGradient>
<linearGradient id="paint3_linear_137_293" x1="89.5494" y1="90.8852" x2="79.7315" y2="78.237" gradientUnits="userSpaceOnUse">
<stop stop-color="#5C6BC0"/>
<stop offset="1" stop-color="#3949AB"/>
</linearGradient>
<linearGradient id="paint4_linear_137_293" x1="108.793" y1="66.1411" x2="71.8281" y2="18.5207" gradientUnits="userSpaceOnUse">
<stop stop-color="#4E267E"/>
<stop offset="1" stop-color="#101019"/>
</linearGradient>
<linearGradient id="paint5_linear_137_293" x1="60.645" y1="102.644" x2="24.0969" y2="55.5601" gradientUnits="userSpaceOnUse">
<stop stop-color="#4E267E"/>
<stop offset="1" stop-color="#101019"/>
</linearGradient>
<linearGradient id="paint6_linear_137_293" x1="101.547" y1="66.4447" x2="67.1542" y2="22.1379" gradientUnits="userSpaceOnUse">
<stop stop-color="white"/>
<stop offset="1" stop-color="#737373"/>
</linearGradient>
<linearGradient id="paint7_linear_137_293" x1="62.8217" y1="95.8006" x2="28.7705" y2="51.9334" gradientUnits="userSpaceOnUse">
<stop stop-color="white"/>
<stop offset="1" stop-color="#8F8F8F"/>
</linearGradient>
<linearGradient id="paint8_linear_137_293" x1="80.5661" y1="79.2546" x2="47.8578" y2="37.1174" gradientUnits="userSpaceOnUse">
<stop stop-color="#4E267E"/>
<stop offset="1" stop-color="#101019"/>
</linearGradient>
<linearGradient id="paint9_linear_137_293" x1="120.417" y1="129.861" x2="158.612" y2="176.776" gradientUnits="userSpaceOnUse">
<stop stop-color="#FCE95E"/>
<stop offset="1" stop-color="#F3B032"/>
</linearGradient>
<linearGradient id="paint10_linear_137_293" x1="165.536" y1="155.976" x2="83.015" y2="147.523" gradientUnits="userSpaceOnUse">
<stop stop-color="#FFB940"/>
<stop offset="1" stop-color="#FFD54F"/>
</linearGradient>
<linearGradient id="paint11_linear_137_293" x1="110.548" y1="165.631" x2="143.899" y2="138.478" gradientUnits="userSpaceOnUse">
<stop stop-color="white"/>
<stop offset="1" stop-color="#E2E5F4"/>
</linearGradient>
</defs>
</svg>
