<svg width="191" height="218" viewBox="0 0 191 218" fill="none" xmlns="http://www.w3.org/2000/svg">
<path d="M163.136 110.244C160.702 115.182 133.948 106.976 103.379 91.9058C72.8103 76.8353 49.9968 60.6136 52.4305 55.6754C54.8643 50.7371 81.6184 58.943 112.187 74.0135C142.756 89.084 165.57 105.306 163.136 110.244Z" fill="url(#paint0_linear_137_270)"/>
<path d="M124.044 101.318C133.343 105.184 141.66 108.104 148.215 109.847C149.394 105.397 150.384 101.028 151.187 96.7617C145.711 92.7738 138.614 88.2844 130.425 83.6416C128.556 89.2776 126.428 95.188 124.035 101.313L124.044 101.318Z" fill="url(#paint1_linear_137_270)"/>
<path d="M61.9327 67.3398C67.3322 71.4849 74.7322 76.3161 83.4644 81.3255C86.8474 75.6815 90.2158 70.3737 93.5334 65.453C84.8624 61.7776 76.9782 58.8849 70.4671 56.9568C67.5816 60.2112 64.7307 63.6768 61.9327 67.3398Z" fill="url(#paint2_linear_137_270)"/>
<path style="mix-blend-mode:multiply" opacity="0.28" d="M111.899 74.5808C81.3303 59.5103 54.8595 50.7214 52.4213 55.6689C51.5623 57.4367 53.9045 60.6455 58.6957 64.7239C57.5788 63.2316 57.1831 62.0211 57.5923 61.1789C59.756 56.773 83.1874 64.5885 110.248 77.9316C137.309 91.2747 157.78 105.088 155.617 109.494C155.207 110.337 153.997 110.755 152.143 110.781C158.292 112.087 162.268 112.005 163.136 110.242C165.57 105.304 142.478 89.6559 111.909 74.5853L111.899 74.5808Z" fill="url(#paint3_linear_137_270)"/>
<path d="M54.8779 53.5566L80.1782 140.455L163.279 107.005" stroke="#C5CAE9" stroke-width="1.5" stroke-miterlimit="10"/>
<path d="M82.7896 59.9219L80.0489 140.391L141.003 89.0422" stroke="#C5CAE9" stroke-width="1.5" stroke-miterlimit="10"/>
<path d="M80.0483 140.392L119.709 58.7676" stroke="#C5CAE9" stroke-width="1.5" stroke-miterlimit="10"/>
<path d="M154.287 100.601C159.939 104.72 163.211 107.946 163.235 109.708C172.113 74.8144 161.342 40.659 134.98 27.667C155.654 37.861 162.678 67.8847 154.287 100.601Z" fill="url(#paint4_linear_137_270)"/>
<path d="M65.4491 56.8056C86.2439 30.2078 114.307 17.4723 134.981 27.6663C108.619 14.6743 75.0049 26.9435 52.7799 55.2604C54.1947 54.2088 58.7442 54.8291 65.4491 56.8056Z" fill="url(#paint5_linear_137_270)"/>
<path d="M134.98 27.667C144.329 32.2782 142.344 56.4488 131.436 86.386C135.929 88.8893 140.075 91.3274 143.788 93.6232C147.843 96.1315 151.381 98.4799 154.287 100.601C162.678 67.8847 155.654 37.861 134.98 27.667Z" fill="url(#paint6_linear_137_270)"/>
<path d="M65.4488 56.8072C68.9028 57.8219 72.9132 59.1984 77.3689 60.8829C81.4549 62.4335 85.9119 64.233 90.6294 66.2735C107.693 39.3728 125.622 23.0522 134.971 27.6634C114.297 17.4693 86.2344 30.2048 65.4396 56.8027L65.4488 56.8072Z" fill="url(#paint7_linear_137_270)"/>
<path d="M134.981 27.6662C125.632 23.055 107.693 39.3712 90.6389 66.2763C94.5932 67.9803 98.7334 69.8432 102.999 71.8474C105.711 73.119 108.483 74.4544 111.278 75.8356C114.083 77.2212 116.823 78.5984 119.48 79.9811C123.67 82.1427 127.671 84.2925 131.432 86.3945C142.335 56.4665 144.325 32.2866 134.976 27.6754L134.981 27.6662Z" fill="url(#paint8_linear_137_270)"/>
<g filter="url(#filter0_d_137_270)">
<path d="M56.0198 190.175C70.7211 197.318 88.4295 191.191 95.5727 176.49C102.716 161.788 96.5889 144.08 81.8876 136.937C67.1863 129.794 49.4779 135.921 42.3347 150.622C35.1915 165.323 41.3185 183.032 56.0198 190.175Z" fill="url(#paint9_linear_137_270)"/>
<path d="M57.7734 186.566C70.4811 192.74 85.7882 187.444 91.9627 174.737C98.1373 162.029 92.8411 146.722 80.1334 140.547C67.4257 134.373 52.1186 139.669 45.944 152.377C39.7695 165.084 45.0657 180.391 57.7734 186.566Z" fill="url(#paint10_linear_137_270)"/>
<path d="M76.5653 166.774C78.5527 166.71 80.2809 165.697 81.2253 163.753C82.6554 160.81 81.2666 157.664 76.7161 155.327L78.2137 152.245L75.7424 151.044L74.2448 154.126L71.3016 152.696L72.7991 149.614L70.3279 148.413L68.8303 151.495L62.7124 148.523L61.0664 151.91L65.1852 153.911L59.0375 166.564L54.9188 164.562L53.2728 167.95L59.3907 170.923L57.8932 174.005L60.3644 175.205L61.862 172.123L64.8053 173.553L63.3077 176.636L65.7789 177.836L67.2765 174.754L67.4431 174.835C72.5522 177.318 76.1622 176.669 77.7947 173.309C78.9819 170.866 78.4031 168.525 76.5746 166.779L76.5653 166.774ZM76.4025 162.165C75.6605 163.692 74.0888 163.889 71.8952 162.823L67.4247 160.651L69.6508 156.07L74.1213 158.242C76.3149 159.308 77.1445 160.638 76.4025 162.165ZM68.7511 171.272L63.5032 168.722L65.8372 163.918L71.0852 166.468C73.4176 167.602 74.2893 168.986 73.4933 170.624C72.6973 172.263 71.0835 172.405 68.7511 171.272Z" fill="white"/>
<path style="mix-blend-mode:overlay" opacity="0.31" d="M39.3553 163.062C48.5015 166.843 59.0014 167.437 69.0867 163.94C79.1675 160.452 87.0643 153.5 91.9184 144.876C84.2965 135.509 71.3591 131.408 59.2749 135.582C47.1907 139.755 39.5541 150.975 39.3553 163.062Z" fill="url(#paint11_linear_137_270)"/>
</g>
<defs>
<filter id="filter0_d_137_270" x="31.3521" y="129.951" width="75.2031" height="75.2061" filterUnits="userSpaceOnUse" color-interpolation-filters="sRGB">
<feFlood flood-opacity="0" result="BackgroundImageFix"/>
<feColorMatrix in="SourceAlpha" type="matrix" values="0 0 0 0 0 0 0 0 0 0 0 0 0 0 0 0 0 0 127 0" result="hardAlpha"/>
<feOffset dy="4"/>
<feGaussianBlur stdDeviation="4"/>
<feComposite in2="hardAlpha" operator="out"/>
<feColorMatrix type="matrix" values="0 0 0 0 1 0 0 0 0 1 0 0 0 0 1 0 0 0 0.37 0"/>
<feBlend mode="normal" in2="BackgroundImageFix" result="effect1_dropShadow_137_270"/>
<feBlend mode="normal" in="SourceGraphic" in2="effect1_dropShadow_137_270" result="shape"/>
</filter>
<linearGradient id="paint0_linear_137_270" x1="102.202" y1="94.4228" x2="111.7" y2="74.875" gradientUnits="userSpaceOnUse">
<stop stop-color="#3A319F"/>
<stop offset="1" stop-color="#100F15"/>
</linearGradient>
<linearGradient id="paint1_linear_137_270" x1="134.614" y1="106.453" x2="142.781" y2="89.6453" gradientUnits="userSpaceOnUse">
<stop stop-color="white"/>
<stop offset="0.81" stop-color="#CCD1EC"/>
</linearGradient>
<linearGradient id="paint2_linear_137_270" x1="72.9593" y1="76.2212" x2="81.1262" y2="59.4131" gradientUnits="userSpaceOnUse">
<stop stop-color="white"/>
<stop offset="0.81" stop-color="#CCD1EC"/>
</linearGradient>
<linearGradient id="paint3_linear_137_270" x1="104.397" y1="89.9041" x2="111.529" y2="75.2248" gradientUnits="userSpaceOnUse">
<stop stop-color="#5C6BC0"/>
<stop offset="1" stop-color="#3949AB"/>
</linearGradient>
<linearGradient id="paint4_linear_137_270" x1="135.682" y1="96.3202" x2="162.534" y2="41.0551" gradientUnits="userSpaceOnUse">
<stop stop-color="#1D1857"/>
<stop offset="1" stop-color="#1E185D"/>
</linearGradient>
<linearGradient id="paint5_linear_137_270" x1="80.6114" y1="68.7834" x2="107.158" y2="14.1478" gradientUnits="userSpaceOnUse">
<stop stop-color="#1E185B"/>
<stop offset="1" stop-color="#0F0F12"/>
</linearGradient>
<linearGradient id="paint6_linear_137_270" x1="132.147" y1="89.8435" x2="157.129" y2="38.4288" gradientUnits="userSpaceOnUse">
<stop stop-color="white"/>
<stop offset="1" stop-color="#CCD1EC"/>
</linearGradient>
<linearGradient id="paint7_linear_137_270" x1="87.8473" y1="67.6903" x2="112.582" y2="16.7847" gradientUnits="userSpaceOnUse">
<stop stop-color="white"/>
<stop offset="1" stop-color="#CCD1EC"/>
</linearGradient>
<linearGradient id="paint8_linear_137_270" x1="110.981" y1="76.4465" x2="134.74" y2="27.5492" gradientUnits="userSpaceOnUse">
<stop stop-color="#1E185C"/>
<stop offset="1" stop-color="#0F0F12"/>
</linearGradient>
<linearGradient id="paint9_linear_137_270" x1="81.8876" y1="136.937" x2="56.0198" y2="190.175" gradientUnits="userSpaceOnUse">
<stop stop-color="#FCE95E"/>
<stop offset="1" stop-color="#F3B032"/>
</linearGradient>
<linearGradient id="paint10_linear_137_270" x1="77.3279" y1="187.738" x2="50.7903" y2="111.039" gradientUnits="userSpaceOnUse">
<stop stop-color="#FFB940"/>
<stop offset="1" stop-color="#FFD54F"/>
</linearGradient>
<linearGradient id="paint11_linear_137_270" x1="46.0808" y1="142.934" x2="83.9269" y2="161.323" gradientUnits="userSpaceOnUse">
<stop stop-color="white"/>
<stop offset="1" stop-color="#E2E5F4"/>
</linearGradient>
</defs>
</svg>
