<svg width="27" height="26" viewBox="0 0 27 26" fill="none" xmlns="http://www.w3.org/2000/svg">
<rect x="0.612793" width="26" height="26" rx="13" fill="#C17BFF"/>
<path d="M19.0293 8.2605C19.4197 7.92923 20.0275 7.90842 20.4346 8.22729C20.8689 8.56767 20.9098 9.16626 20.5264 9.56421L12.4238 17.9724C12.3591 18.0838 12.2694 18.185 12.1533 18.2664C11.9245 18.4267 11.642 18.4819 11.3721 18.4421C11.1689 18.4227 10.9707 18.3506 10.8057 18.2214C10.6899 18.1307 10.6023 18.0209 10.543 17.9021L7.22949 14.0173L7.16699 13.9363C6.87944 13.521 6.96895 12.9777 7.38965 12.6824C7.83876 12.3675 8.49563 12.4538 8.85645 12.8767L11.541 16.0242L18.9541 8.33179L19.0293 8.2605Z" fill="white"/>
</svg>
