<svg width="16" height="16" viewBox="0 0 16 16" fill="none" xmlns="http://www.w3.org/2000/svg">
<path fill-rule="evenodd" clip-rule="evenodd" d="M3.73749 5.99993C4.04401 5.68224 4.55344 5.63542 4.9171 5.89653L4.93528 5.90959L5.02191 5.9846L7.99954 9.07077L10.9781 5.98458L11.0647 5.90959L11.0829 5.89653C11.4466 5.63542 11.956 5.68224 12.2625 5.99993C12.5792 6.32812 12.5792 6.83859 12.2625 7.16678L8.64961 10.9113C8.53943 11.0255 8.39876 11.1089 8.2409 11.1516L8.21786 11.1579L8.08148 11.1822H7.94283L7.91877 11.18C7.75551 11.1657 7.60037 11.1083 7.46999 11.0147L7.45181 11.0016L7.36519 10.9266L3.73749 7.16678C3.42084 6.83859 3.42084 6.32812 3.73749 5.99993Z" fill="white"/>
</svg>
