<svg width="16" height="18" viewBox="0 0 16 18" fill="none" xmlns="http://www.w3.org/2000/svg">
<path d="M8 0.5C8.41421 0.5 8.75 0.835786 8.75 1.25V1.70605C11.9478 1.83714 14.5 4.47024 14.5 7.7002V13.2002H15.25C15.6642 13.2002 16 13.536 16 13.9502C15.9999 14.3643 15.6642 14.7002 15.25 14.7002H11.9766C11.3701 16.3069 9.81898 17.4502 8 17.4502C6.18102 17.4502 4.62989 16.3069 4.02344 14.7002H0.75C0.335847 14.7002 9.89401e-05 14.3643 0 13.9502C0 13.536 0.335786 13.2002 0.75 13.2002H1.5V7.7002C1.50023 4.47044 4.05239 1.83716 7.25 1.70605V1.25C7.25 0.835786 7.58579 0.5 8 0.5ZM5.69727 14.7002C6.18807 15.452 7.03516 15.9502 8 15.9502C8.96484 15.9502 9.81193 15.452 10.3027 14.7002H5.69727ZM7.5 3.2002C5.01506 3.2002 3.00023 5.21491 3 7.7002V13.2002H13V7.7002C13 5.21491 10.9853 3.2002 8.5 3.2002H7.5Z" fill="white"/>
</svg>
