<svg width="16" height="16" viewBox="0 0 16 16" fill="none" xmlns="http://www.w3.org/2000/svg">
<path d="M8 13.8177C4.425 13.8177 1.5 10.9337 1.5 7.40883C1.5 3.88397 4.425 1 8 1C11.575 1 14.5 3.88397 14.5 7.40883C14.5 10.9337 11.575 13.8177 8 13.8177ZM8 12.7495C10.9792 12.7495 13.4167 10.3462 13.4167 7.40883C13.4167 4.47145 10.9792 2.06814 8 2.06814C5.02083 2.06814 2.58333 4.47145 2.58333 7.40883C2.58333 10.3462 5.02083 12.7495 8 12.7495ZM12.0083 13.604C11.7917 13.3904 11.8458 13.0166 12.0625 12.8563C12.2792 12.6961 12.6583 12.6961 12.8208 12.9097L13.85 14.1381C14.0667 14.3517 14.0125 14.7256 13.7958 14.8858C13.5792 15.046 13.2 15.046 13.0375 14.8324L12.0083 13.604Z" fill="white"/>
<path fill-rule="evenodd" clip-rule="evenodd" d="M8.00078 1.19999C4.53357 1.19999 1.70078 3.99707 1.70078 7.40881C1.70078 10.8206 4.53357 13.6176 8.00078 13.6176C11.468 13.6176 14.3008 10.8206 14.3008 7.40881C14.3008 3.99707 11.468 1.19999 8.00078 1.19999ZM1.30078 7.40881C1.30078 3.77085 4.318 0.799988 8.00078 0.799988C11.6836 0.799988 14.7008 3.77085 14.7008 7.40881C14.7008 9.50314 13.7008 11.3764 12.1496 12.589C12.2539 12.5532 12.3654 12.538 12.4721 12.543C12.6517 12.5515 12.8497 12.6195 12.9776 12.7845L13.9985 14.003C14.1509 14.158 14.2033 14.3641 14.1853 14.5512C14.1671 14.739 14.0761 14.9278 13.9155 15.0466C13.7654 15.1576 13.5695 15.2076 13.3878 15.199C13.2082 15.1906 13.0102 15.1226 12.8823 14.9576L11.8614 13.7391C11.709 13.5841 11.6566 13.378 11.6746 13.1909C11.6864 13.0694 11.7286 12.9475 11.8004 12.8444C10.7186 13.5837 9.40832 14.0176 8.00078 14.0176C4.318 14.0176 1.30078 11.0468 1.30078 7.40881ZM2.38411 7.40881C2.38411 4.35832 4.91383 1.86813 8.00078 1.86813C11.0877 1.86813 13.6174 4.35832 13.6174 7.40881C13.6174 10.4593 11.0877 12.9495 8.00078 12.9495C4.91383 12.9495 2.38411 10.4593 2.38411 7.40881ZM8.00078 2.26813C5.1294 2.26813 2.78411 4.58455 2.78411 7.40881C2.78411 10.2331 5.1294 12.5495 8.00078 12.5495C10.8722 12.5495 13.2174 10.2331 13.2174 7.40881C13.2174 4.58455 10.8722 2.26813 8.00078 2.26813ZM12.4534 12.9426C12.3508 12.9378 12.2487 12.968 12.1822 13.0171C12.1261 13.0586 12.0817 13.1368 12.0728 13.2294C12.064 13.3197 12.0909 13.4038 12.1495 13.4616L12.1563 13.4683L13.1976 14.7112C13.2324 14.7568 13.3032 14.7946 13.4065 14.7995C13.5091 14.8043 13.6112 14.7741 13.6777 14.725C13.7338 14.6835 13.7782 14.6053 13.7871 14.5127C13.7959 14.4224 13.769 14.3383 13.7104 14.2805L13.7036 14.2738L12.6623 13.0309C12.6275 12.9853 12.5567 12.9475 12.4534 12.9426Z" fill="white"/>
</svg>
