<svg width="26" height="26" viewBox="0 0 26 26" fill="none" xmlns="http://www.w3.org/2000/svg">
<path d="M13 26C20.1797 26 26 20.1797 26 13C26 5.8203 20.1797 0 13 0C5.8203 0 0 5.8203 0 13C0 20.1797 5.8203 26 13 26Z" fill="#26A17B"/>
<path fill-rule="evenodd" clip-rule="evenodd" d="M14.5618 14.1238V14.1222C14.4724 14.1287 14.0117 14.1563 12.9839 14.1563C12.1633 14.1563 11.5856 14.1319 11.3825 14.1222V14.1246C8.22346 13.9857 5.86558 13.4356 5.86558 12.7775C5.86558 12.1202 8.22346 11.5701 11.3825 11.4287V13.577C11.5888 13.5916 12.1803 13.6265 12.9977 13.6265C13.9784 13.6265 14.47 13.5859 14.5618 13.5778V11.4303C17.7143 11.5709 20.0665 12.121 20.0665 12.7775C20.0665 13.4356 17.7143 13.984 14.5618 14.1238ZM14.5618 11.2069V9.28453H18.9606V6.35303H6.98358V9.28453H11.3825V11.2061C7.80746 11.3702 5.1189 12.0787 5.1189 12.927C5.1189 13.7752 7.80746 14.4829 11.3825 14.6478V20.8082H14.5618V14.6462C18.1311 14.4821 20.8131 13.7744 20.8131 12.927C20.8131 12.0795 18.1311 11.3718 14.5618 11.2069Z" fill="white"/>
</svg>
