<svg width="51" height="54" viewBox="0 0 51 54" fill="none" xmlns="http://www.w3.org/2000/svg">
<rect width="51" height="54" rx="12" fill="#DCDCDC"/>
<path d="M27.1725 32.763V35.1698H32.0058C32.5581 35.1698 33.0058 35.6175 33.0058 36.1698V36.5031C33.0058 37.0554 32.5581 37.5031 32.0058 37.5031H20.0058C19.4535 37.5031 19.0058 37.0554 19.0058 36.5031V36.1698C19.0058 35.6175 19.4535 35.1698 20.0058 35.1698H24.8392V32.763C22.5837 32.4783 20.5097 31.3805 19.0061 29.6754C17.5025 27.9704 16.6728 25.7753 16.6725 23.502V18.502C16.6725 17.3974 17.5679 16.502 18.6725 16.502H33.3392C34.4437 16.502 35.3392 17.3974 35.3392 18.502V23.502C35.3389 25.7753 34.5091 27.9704 33.0055 29.6754C31.502 31.3805 29.4279 32.4783 27.1725 32.763ZM13.1725 19.8365C13.1725 19.2842 13.6202 18.8365 14.1725 18.8365H14.5058C15.0581 18.8365 15.5058 19.2842 15.5058 19.8365V22.5031C15.5058 23.0554 15.0581 23.5031 14.5058 23.5031H14.1725C13.6202 23.5031 13.1725 23.0554 13.1725 22.5031V19.8365ZM36.5058 19.8365C36.5058 19.2842 36.9535 18.8365 37.5058 18.8365H37.8392C38.3914 18.8365 38.8392 19.2842 38.8392 19.8365V22.5031C38.8392 23.0554 38.3914 23.5031 37.8392 23.5031H37.5058C36.9535 23.5031 36.5058 23.0554 36.5058 22.5031V19.8365Z" fill="black" fill-opacity="0.3"/>
</svg>
