<svg width="51" height="54" viewBox="0 0 51 54" fill="none" xmlns="http://www.w3.org/2000/svg">
<rect width="51" height="54" rx="12" fill="url(#paint0_linear_1206_3587)"/>
<path d="M27.1726 32.763V35.1698H32.0059C32.5582 35.1698 33.0059 35.6175 33.0059 36.1698V36.5031C33.0059 37.0554 32.5582 37.5031 32.0059 37.5031H20.0059C19.4537 37.5031 19.0059 37.0554 19.0059 36.5031V36.1698C19.0059 35.6175 19.4537 35.1698 20.0059 35.1698H24.8393V32.763C22.5839 32.4783 20.5098 31.3805 19.0062 29.6754C17.5027 27.9704 16.6729 25.7753 16.6726 23.502V18.502C16.6726 17.3974 17.568 16.502 18.6726 16.502H33.3393C34.4438 16.502 35.3393 17.3974 35.3393 18.502V23.502C35.339 25.7753 34.5092 27.9704 33.0056 29.6754C31.5021 31.3805 29.428 32.4783 27.1726 32.763ZM13.1726 19.8365C13.1726 19.2842 13.6203 18.8365 14.1726 18.8365H14.5059C15.0582 18.8365 15.5059 19.2842 15.5059 19.8365V22.5031C15.5059 23.0554 15.0582 23.5031 14.5059 23.5031H14.1726C13.6203 23.5031 13.1726 23.0554 13.1726 22.5031V19.8365ZM36.5059 19.8365C36.5059 19.2842 36.9537 18.8365 37.5059 18.8365H37.8393C38.3916 18.8365 38.8393 19.2842 38.8393 19.8365V22.5031C38.8393 23.0554 38.3916 23.5031 37.8393 23.5031H37.5059C36.9537 23.5031 36.5059 23.0554 36.5059 22.5031V19.8365Z" fill="#6B5D25" fill-opacity="0.5"/>
<defs>
<linearGradient id="paint0_linear_1206_3587" x1="25.5" y1="0" x2="25.5" y2="54" gradientUnits="userSpaceOnUse">
<stop stop-color="#E6D48D"/>
<stop offset="1" stop-color="#E6D48D"/>
</linearGradient>
</defs>
</svg>
