<svg width="48" height="54" viewBox="0 0 48 54" fill="none" xmlns="http://www.w3.org/2000/svg">
<path d="M13 35.957C16.6666 38.6236 20.3334 40.757 24 40.757C27.6666 40.757 31.3334 38.6236 35 35.957C31.9778 35.037 30.4444 33.6636 30.4 31.837C30.4 31.5114 30.4024 31.049 30.4046 30.1808C30.4046 30.0429 30.405 29.9017 30.4056 29.7572C30.4116 27.4292 30.4214 24.3572 30.4352 21.2372C33.3016 17.5218 32.2486 13.166 31.3504 13.2746C30.2492 13.4086 20.7086 4.35496 18.8786 3.89076C17.0486 3.42656 12.4 4.92516 11.6 9.10016C10.8 13.2752 10.4656 23.7988 13.5 28.0002C14.3635 29.1958 15.7235 29.6634 17.58 29.4032C17.5826 30.277 17.5878 30.7674 17.6 31.757C17.5762 33.6668 16.043 35.038 13 35.957Z" fill="url(#paint0_linear_1209_3145)"/>
<path d="M17.6001 29.4C22.0001 28.9 24.8001 27 24.8001 27C24.8001 27 21.6001 31 17.6001 31.8V29.4Z" fill="#FC9F6A"/>
<path d="M31.9 21.3002C33.278 17.9862 38.8 11.2368 34.04 7.03676C32.44 -0.763238 23.6 0.100162 17.7 1.90016C13.7346 3.10996 10.74 5.50016 10.1 3.70016C6.10002 7.03676 8.10322 10.3002 10.74 11.2368C13.1332 12.0868 17.18 12.9368 24.0612 12.1368C25.2904 11.9938 25.033 15.7584 25.6898 16.1654C26.6752 16.776 27.44 12.9368 30.1416 14.0896C32.8432 15.2424 31.24 20.5876 28.34 20.5876C27.34 20.5876 26.84 23.337 29.54 24.637C31.5 25.6002 31.0046 23.4536 31.9 21.3002Z" fill="url(#paint1_linear_1209_3145)"/>
<path d="M45 42.0622C46.904 45.9336 48 54.8622 48 54.8622H0C0 54.8622 1.0964 45.9326 3 42.0622C4.9036 38.1918 16.02 34.602 16.02 34.602C22.1626 37.0006 25.9216 37.0006 31.9742 34.6006C31.9742 34.6006 43.096 38.1908 45 42.0622Z" fill="url(#paint2_linear_1209_3145)"/>
<path d="M25.4 36L26.4 54.4H21.6L22.6 36C22.6 36 23.5334 35 24 35C24.4666 35 25.4 36 25.4 36Z" fill="url(#paint3_linear_1209_3145)"/>
<path d="M25.6278 39.7384L22.4828 37.9212L22.6 36C23.2223 35.3333 23.6889 35 24 35C24.3111 35 24.7777 35.3333 25.4 36L25.628 39.7384H25.6278Z" fill="#645050"/>
<path d="M24 34.9986L22 38.6002L15.8 34.8002L17.6 32.2002L24 34.5644L30.4 32.2002L32.2 34.8002L26 38.6002L24 34.9986Z" fill="white"/>
<defs>
<linearGradient id="paint0_linear_1209_3145" x1="23.0244" y1="3.80957" x2="23.0244" y2="40.757" gradientUnits="userSpaceOnUse">
<stop stop-color="#F7B186"/>
<stop offset="1" stop-color="#FFC299"/>
</linearGradient>
<linearGradient id="paint1_linear_1209_3145" x1="21.8881" y1="0.677734" x2="21.8881" y2="24.8738" gradientUnits="userSpaceOnUse">
<stop stop-color="#110024"/>
<stop offset="1" stop-color="#090014"/>
</linearGradient>
<linearGradient id="paint2_linear_1209_3145" x1="24" y1="34.6006" x2="24" y2="54.8622" gradientUnits="userSpaceOnUse">
<stop stop-color="#110024"/>
<stop offset="1" stop-color="#090014"/>
</linearGradient>
<linearGradient id="paint3_linear_1209_3145" x1="24" y1="35" x2="24" y2="54.4" gradientUnits="userSpaceOnUse">
<stop stop-color="#806A6A"/>
<stop offset="1" stop-color="#665654"/>
</linearGradient>
</defs>
</svg>
