<svg width="31" height="9" viewBox="0 0 31 9" fill="none" xmlns="http://www.w3.org/2000/svg">
<path d="M3.31316 8.632C2.69716 8.632 2.10116 8.528 1.52516 8.32C0.949156 8.104 0.497156 7.836 0.169156 7.516C0.105156 7.452 0.101156 7.384 0.157156 7.312L1.06916 6.268C1.11716 6.204 1.17716 6.2 1.24916 6.256C1.95316 6.816 2.66516 7.096 3.38516 7.096C3.80116 7.096 4.12516 7.008 4.35716 6.832C4.59716 6.656 4.71716 6.42 4.71716 6.124C4.71716 5.868 4.62116 5.668 4.42916 5.524C4.24516 5.38 3.92116 5.276 3.45716 5.212L3.02516 5.152C1.30516 4.912 0.445156 4.096 0.445156 2.704C0.445156 1.952 0.705156 1.348 1.22516 0.892C1.75316 0.436 2.45716 0.207999 3.33716 0.207999C4.44916 0.207999 5.37316 0.492 6.10916 1.06C6.18116 1.108 6.18916 1.168 6.13316 1.24L5.40116 2.332C5.35316 2.396 5.29716 2.408 5.23316 2.368C4.59316 1.952 3.96116 1.744 3.33716 1.744C2.98516 1.744 2.71316 1.828 2.52116 1.996C2.33716 2.156 2.24516 2.368 2.24516 2.632C2.24516 2.872 2.34116 3.068 2.53316 3.22C2.73316 3.364 3.06116 3.468 3.51716 3.532L3.94916 3.592C5.66116 3.824 6.51716 4.648 6.51716 6.064C6.51716 6.832 6.23716 7.452 5.67716 7.924C5.12516 8.396 4.33716 8.632 3.31316 8.632ZM11.0884 8.5H9.69641C9.61641 8.5 9.56441 8.46 9.54041 8.38L6.94841 0.472C6.92441 0.384 6.96041 0.34 7.05641 0.34H8.61641C8.69641 0.34 8.74841 0.38 8.77241 0.46L10.4044 5.812H10.4404L12.0244 0.46C12.0484 0.38 12.1004 0.34 12.1804 0.34H13.7284C13.8164 0.34 13.8484 0.384 13.8244 0.472L11.2324 8.38C11.2084 8.46 11.1604 8.5 11.0884 8.5ZM14.7331 8.38V0.46C14.7331 0.38 14.7731 0.34 14.8531 0.34H16.3771C16.4571 0.34 16.4971 0.38 16.4971 0.46V8.38C16.4971 8.46 16.4571 8.5 16.3771 8.5H14.8531C14.7731 8.5 14.7331 8.46 14.7331 8.38ZM19.7053 8.5H18.1813C18.1013 8.5 18.0613 8.46 18.0613 8.38V0.46C18.0613 0.38 18.1013 0.34 18.1813 0.34H21.3493C22.2293 0.34 22.9213 0.58 23.4253 1.06C23.9373 1.54 24.1933 2.176 24.1933 2.968C24.1933 3.744 23.9373 4.376 23.4253 4.864C22.9133 5.344 22.2213 5.584 21.3493 5.584H19.8973C19.8493 5.584 19.8253 5.608 19.8253 5.656V8.38C19.8253 8.46 19.7853 8.5 19.7053 8.5ZM21.2413 4.06C21.6093 4.06 21.8973 3.964 22.1053 3.772C22.3213 3.572 22.4293 3.304 22.4293 2.968C22.4293 2.632 22.3213 2.364 22.1053 2.164C21.8973 1.964 21.6093 1.864 21.2413 1.864H19.8973C19.8493 1.864 19.8253 1.888 19.8253 1.936V3.988C19.8253 4.036 19.8493 4.06 19.8973 4.06H21.2413ZM25.1589 7.312C25.0789 7.312 25.0389 7.272 25.0389 7.192V5.968C25.0389 5.904 25.0469 5.856 25.0629 5.824L27.5109 0.435999C27.5429 0.372 27.5989 0.34 27.6789 0.34H29.2029C29.2829 0.34 29.3109 0.38 29.2869 0.46L26.8389 5.824V5.86H28.3389C28.3869 5.86 28.4109 5.836 28.4109 5.788V4.024C28.4109 3.944 28.4509 3.904 28.5309 3.904H29.9229C30.0029 3.904 30.0429 3.944 30.0429 4.024V5.788C30.0429 5.836 30.0669 5.86 30.1149 5.86H30.6549C30.7349 5.86 30.7749 5.9 30.7749 5.98V7.192C30.7749 7.272 30.7349 7.312 30.6549 7.312H30.1149C30.0669 7.312 30.0429 7.336 30.0429 7.384V8.38C30.0429 8.46 30.0029 8.5 29.9229 8.5H28.5309C28.4509 8.5 28.4109 8.46 28.4109 8.38V7.384C28.4109 7.336 28.3869 7.312 28.3389 7.312H25.1589Z" fill="white" fill-opacity="0.5"/>
</svg>
