<svg width="31" height="9" viewBox="0 0 31 9" fill="none" xmlns="http://www.w3.org/2000/svg">
<path d="M3.31316 8.632C2.69716 8.632 2.10116 8.528 1.52516 8.32C0.949156 8.104 0.497156 7.836 0.169156 7.516C0.105156 7.452 0.101156 7.384 0.157156 7.312L1.06916 6.268C1.11716 6.204 1.17716 6.2 1.24916 6.256C1.95316 6.816 2.66516 7.096 3.38516 7.096C3.80116 7.096 4.12516 7.008 4.35716 6.832C4.59716 6.656 4.71716 6.42 4.71716 6.124C4.71716 5.868 4.62116 5.668 4.42916 5.524C4.24516 5.38 3.92116 5.276 3.45716 5.212L3.02516 5.152C1.30516 4.912 0.445156 4.096 0.445156 2.704C0.445156 1.952 0.705156 1.348 1.22516 0.892C1.75316 0.436 2.45716 0.207999 3.33716 0.207999C4.44916 0.207999 5.37316 0.492 6.10916 1.06C6.18116 1.108 6.18916 1.168 6.13316 1.24L5.40116 2.332C5.35316 2.396 5.29716 2.408 5.23316 2.368C4.59316 1.952 3.96116 1.744 3.33716 1.744C2.98516 1.744 2.71316 1.828 2.52116 1.996C2.33716 2.156 2.24516 2.368 2.24516 2.632C2.24516 2.872 2.34116 3.068 2.53316 3.22C2.73316 3.364 3.06116 3.468 3.51716 3.532L3.94916 3.592C5.66116 3.824 6.51716 4.648 6.51716 6.064C6.51716 6.832 6.23716 7.452 5.67716 7.924C5.12516 8.396 4.33716 8.632 3.31316 8.632ZM11.0884 8.5H9.69641C9.61641 8.5 9.56441 8.46 9.54041 8.38L6.94841 0.472C6.92441 0.384 6.96041 0.34 7.05641 0.34H8.61641C8.69641 0.34 8.74841 0.38 8.77241 0.46L10.4044 5.812H10.4404L12.0244 0.46C12.0484 0.38 12.1004 0.34 12.1804 0.34H13.7284C13.8164 0.34 13.8484 0.384 13.8244 0.472L11.2324 8.38C11.2084 8.46 11.1604 8.5 11.0884 8.5ZM14.7331 8.38V0.46C14.7331 0.38 14.7731 0.34 14.8531 0.34H16.3771C16.4571 0.34 16.4971 0.38 16.4971 0.46V8.38C16.4971 8.46 16.4571 8.5 16.3771 8.5H14.8531C14.7731 8.5 14.7331 8.46 14.7331 8.38ZM19.7053 8.5H18.1813C18.1013 8.5 18.0613 8.46 18.0613 8.38V0.46C18.0613 0.38 18.1013 0.34 18.1813 0.34H21.3493C22.2293 0.34 22.9213 0.58 23.4253 1.06C23.9373 1.54 24.1933 2.176 24.1933 2.968C24.1933 3.744 23.9373 4.376 23.4253 4.864C22.9133 5.344 22.2213 5.584 21.3493 5.584H19.8973C19.8493 5.584 19.8253 5.608 19.8253 5.656V8.38C19.8253 8.46 19.7853 8.5 19.7053 8.5ZM21.2413 4.06C21.6093 4.06 21.8973 3.964 22.1053 3.772C22.3213 3.572 22.4293 3.304 22.4293 2.968C22.4293 2.632 22.3213 2.364 22.1053 2.164C21.8973 1.964 21.6093 1.864 21.2413 1.864H19.8973C19.8493 1.864 19.8253 1.888 19.8253 1.936V3.988C19.8253 4.036 19.8493 4.06 19.8973 4.06H21.2413ZM25.2189 6.76C25.2029 6.68 25.2349 6.628 25.3149 6.604L26.6349 6.352C26.7069 6.344 26.7549 6.376 26.7789 6.448C26.9469 6.96 27.3029 7.216 27.8469 7.216C28.1509 7.216 28.3949 7.12 28.5789 6.928C28.7629 6.728 28.8549 6.472 28.8549 6.16C28.8549 5.8 28.7509 5.52 28.5429 5.32C28.3429 5.112 28.0669 5.008 27.7149 5.008H27.3669C27.2869 5.008 27.2469 4.968 27.2469 4.888V3.724C27.2469 3.644 27.2869 3.604 27.3669 3.604H27.6909C27.9949 3.604 28.2389 3.512 28.4229 3.328C28.6069 3.144 28.6989 2.896 28.6989 2.584C28.6989 2.296 28.6149 2.064 28.4469 1.888C28.2869 1.712 28.0629 1.624 27.7749 1.624C27.2949 1.624 26.9869 1.876 26.8509 2.38C26.8269 2.452 26.7789 2.48 26.7069 2.464L25.3989 2.212C25.3189 2.196 25.2869 2.152 25.3029 2.08C25.3989 1.52 25.6709 1.068 26.1189 0.724C26.5749 0.38 27.1549 0.207999 27.8589 0.207999C28.6429 0.207999 29.2589 0.415999 29.7069 0.831999C30.1549 1.248 30.3789 1.792 30.3789 2.464C30.3789 3.184 30.0749 3.744 29.4669 4.144V4.168C29.7549 4.304 30.0029 4.544 30.2109 4.888C30.4269 5.232 30.5349 5.652 30.5349 6.148C30.5349 6.884 30.2829 7.484 29.7789 7.948C29.2829 8.404 28.6469 8.632 27.8709 8.632C27.1669 8.632 26.5749 8.468 26.0949 8.14C25.6229 7.804 25.3309 7.344 25.2189 6.76Z" fill="white" fill-opacity="0.5"/>
</svg>
