<svg width="21" height="21" viewBox="0 0 21 21" fill="none" xmlns="http://www.w3.org/2000/svg">
<path d="M16.6939 16.6143C15.0556 16.6143 12.7364 14.7986 11.7942 12.8278H9.20557C8.26883 14.7985 5.95078 16.5736 4.30606 16.5736C1.31851 16.5736 0.645996 10.7345 0.645996 8.69078C0.645996 6.00678 2.79303 3.81824 5.43222 3.81824H15.5678C18.207 3.81824 20.354 5.99635 20.354 8.66769C20.354 10.7279 19.6815 16.6143 16.6939 16.6143ZM8.83769 11.7016H12.1623C12.3944 11.7016 12.6025 11.8539 12.6869 12.07C13.3734 13.8302 15.5263 15.4925 16.6939 15.4925C18.381 15.4925 19.2278 11.1161 19.2278 8.67017C19.2278 6.61992 17.5859 4.94442 15.5678 4.94442H5.43224C3.44823 4.94442 1.77218 6.66777 1.77218 8.69575C1.77218 11.4551 2.67454 15.4518 4.30606 15.4518C5.48061 15.4518 7.6348 13.8071 8.31308 12.0673C8.39751 11.8511 8.60565 11.7016 8.83769 11.7016Z" fill="#9A9BFF"/>
<path d="M10.0776 11.1384H9.79607C9.64044 11.1384 9.51453 11.0125 9.51453 10.8569C9.51453 10.7012 9.64044 10.5753 9.79607 10.5753H10.0776C10.2332 10.5753 10.3592 10.7012 10.3592 10.8569C10.3592 11.0125 10.2332 11.1384 10.0776 11.1384Z" fill="#9A9BFF"/>
<path d="M4.33306 14.7029C4.17743 14.7029 4.05151 14.5814 4.05151 14.4258C4.05151 14.2702 4.17743 14.147 4.33306 14.147C5.14141 14.147 7.12622 12.1201 7.65108 10.7637C7.69315 10.6553 7.79735 10.5753 7.91365 10.5753H8.95157C9.1072 10.5753 9.23311 10.7012 9.23311 10.8569C9.23311 11.0125 9.1072 11.1384 8.95157 11.1384H8.10034C7.46852 12.5463 5.49443 14.7029 4.33306 14.7029Z" fill="#9A9BFF"/>
<path d="M5.39861 11.1579C5.24298 11.1579 5.11707 11.032 5.11707 10.8763V6.93474C5.11707 6.77911 5.24298 6.6532 5.39861 6.6532C5.55424 6.6532 5.68016 6.77911 5.68016 6.93474V10.8763C5.68016 11.032 5.55424 11.1579 5.39861 11.1579Z" fill="#9A9BFF"/>
<path d="M7.2622 9.16746H3.32061C3.16498 9.16746 3.03906 9.04155 3.03906 8.88592C3.03906 8.73029 3.16498 8.60437 3.32061 8.60437H7.2622C7.41783 8.60437 7.54374 8.73029 7.54374 8.88592C7.54374 9.04155 7.41783 9.16746 7.2622 9.16746Z" fill="#9A9BFF"/>
<path d="M15.7627 8.93128C15.5048 8.93128 15.2625 8.83066 15.0802 8.6481C14.8982 8.46636 14.7979 8.22412 14.7979 7.96623C14.7979 7.70834 14.8982 7.46612 15.0805 7.28382C15.4445 6.91923 16.0808 6.91923 16.4448 7.28382C16.6273 7.46612 16.7277 7.70834 16.7277 7.96623C16.7277 8.22412 16.6273 8.46636 16.4451 8.64835C16.2628 8.83068 16.0205 8.93128 15.7627 8.93128ZM15.7627 7.56454C15.6554 7.56454 15.5545 7.60607 15.4786 7.68194C15.4028 7.75782 15.361 7.85872 15.361 7.96623C15.361 8.07345 15.4028 8.17437 15.4786 8.25023C15.6304 8.40259 15.8946 8.40259 16.0469 8.25023C16.1228 8.17437 16.1646 8.07345 16.1646 7.96623C16.1646 7.85901 16.1228 7.75811 16.0467 7.68194C15.9708 7.60607 15.8699 7.56454 15.7627 7.56454Z" fill="#9A9BFF"/>
<path d="M17.3065 10.4749C17.0486 10.4749 16.8061 10.3743 16.6238 10.1918C16.4418 10.01 16.3414 9.76782 16.3414 9.50988C16.3414 9.25199 16.4418 9.00979 16.6241 8.82776C16.9881 8.46317 17.624 8.46317 17.9886 8.82776C18.365 9.20362 18.365 9.81565 17.9889 10.1923C17.8063 10.3746 17.5641 10.4749 17.3065 10.4749ZM17.3062 9.10819C17.199 9.10819 17.0981 9.15 17.0222 9.22586C16.9463 9.30177 16.9045 9.40264 16.9045 9.50986C16.9045 9.61712 16.9463 9.718 17.0222 9.7939C17.1742 9.94592 17.4387 9.94592 17.5908 9.79416C17.7472 9.63745 17.7472 9.3826 17.5905 9.22586C17.5146 9.15 17.4137 9.10819 17.3062 9.10819Z" fill="#9A9BFF"/>
<path d="M14.2192 10.4749C13.9613 10.4749 13.719 10.3746 13.5368 10.192C13.3545 10.0098 13.2541 9.76752 13.2544 9.50988C13.2544 9.25199 13.3547 9.00979 13.5371 8.82776C13.9011 8.46317 14.5373 8.46317 14.9013 8.82776C15.0836 9.0095 15.1842 9.25174 15.1842 9.50963C15.1845 9.76752 15.0841 10.01 14.9016 10.1923C14.7193 10.3746 14.4771 10.4749 14.2192 10.4749ZM14.2192 9.10819C14.112 9.10819 14.011 9.15 13.9352 9.22586C13.8593 9.30177 13.8175 9.40264 13.8175 9.50986C13.8175 9.61712 13.859 9.718 13.9349 9.7939C14.0872 9.94649 14.3517 9.94567 14.5035 9.79416C14.5794 9.71829 14.6212 9.61712 14.6212 9.50986C14.6212 9.40264 14.5794 9.30177 14.5035 9.22613C14.4273 9.15 14.3264 9.10819 14.2192 9.10819Z" fill="#9A9BFF"/>
<path d="M15.7627 12.0183C15.5048 12.0183 15.2625 11.9182 15.0805 11.7356C14.8982 11.5536 14.7979 11.3112 14.7979 11.0534C14.7979 10.7955 14.8982 10.5532 15.0805 10.3712C15.4445 10.0066 16.0808 10.0066 16.4448 10.3712C16.6271 10.5529 16.7277 10.7952 16.7277 11.0531C16.728 11.311 16.6276 11.5536 16.4451 11.7356C16.2628 11.9182 16.0205 12.0183 15.7627 12.0183ZM15.7627 10.6517C15.6554 10.6517 15.5545 10.6934 15.4786 10.7693C15.4028 10.8452 15.361 10.9461 15.361 11.0534C15.361 11.1609 15.4028 11.2618 15.4786 11.3376C15.6307 11.4898 15.8954 11.4893 16.0469 11.3376C16.1228 11.2618 16.1646 11.1606 16.1646 11.0534C16.1646 10.9461 16.1228 10.8452 16.0469 10.7696C15.9708 10.6934 15.8699 10.6517 15.7627 10.6517Z" fill="#9A9BFF"/>
</svg>
