<svg width="28" height="25" viewBox="0 0 28 25" fill="none" xmlns="http://www.w3.org/2000/svg">
<path d="M14.1875 1.56124C17.4862 -0.805637 22.0356 -0.471887 24.9725 2.49874C26.5506 4.09624 27.4375 6.27374 27.4375 8.54499C27.4375 10.8162 26.55 12.9937 24.9737 14.59L16.3481 23.365C16.0451 23.6835 15.6805 23.9372 15.2766 24.1108C14.8727 24.2844 14.4378 24.3743 13.9981 24.375C13.5605 24.3747 13.1275 24.2858 12.7251 24.1137C12.3228 23.9416 11.9594 23.6899 11.6569 23.3737L3.02312 14.5831C1.44813 12.9856 0.5625 10.81 0.5625 8.54124C0.5625 6.27249 1.44812 4.09624 3.02375 2.49811C5.96 -0.471887 10.51 -0.805637 13.8087 1.56124L13.9975 1.70124L14.1875 1.56124Z" fill="#FF3737"/>
</svg>
