<svg width="23" height="23" viewBox="0 0 23 23" fill="none" xmlns="http://www.w3.org/2000/svg">
<path d="M21.955 1.82956V7.13315C21.955 7.34108 21.8723 7.54049 21.7253 7.6875C21.5782 7.83452 21.3788 7.91711 21.1709 7.91711C20.963 7.91711 20.7636 7.83452 20.6165 7.6875C20.4695 7.54049 20.3868 7.34108 20.3868 7.13315V3.72183L14.3253 9.78338C14.2526 9.85634 14.1663 9.91423 14.0712 9.95372C13.9761 9.99323 13.8741 10.0136 13.7712 10.0136C13.6682 10.0136 13.5663 9.99323 13.4712 9.95372C13.3761 9.91423 13.2897 9.85634 13.2171 9.78338C13.1442 9.71056 13.0864 9.6241 13.047 9.52894C13.0075 9.43378 12.9872 9.33178 12.9872 9.22877C12.9872 9.12576 13.0075 9.02376 13.047 8.92859C13.0864 8.83343 13.1442 8.74697 13.2171 8.67415L19.2776 2.61365H15.8673C15.6594 2.61351 15.46 2.53077 15.313 2.38363C15.1661 2.23649 15.0836 2.03699 15.0837 1.82904C15.0839 1.62109 15.1666 1.4217 15.3138 1.27476C15.4609 1.12781 15.6604 1.04533 15.8684 1.04547H21.1709C21.3789 1.04547 21.5783 1.12808 21.7253 1.27513C21.8724 1.42217 21.955 1.62161 21.955 1.82956ZM8.67667 13.2156L2.61408 19.2772V15.8648C2.61394 15.6568 2.5312 15.4575 2.38406 15.3105C2.23691 15.1636 2.03742 15.0811 1.82947 15.0812C1.62151 15.0814 1.42213 15.1641 1.27518 15.3112C1.12824 15.4584 1.04576 15.6579 1.0459 15.8658V21.1705C1.0459 21.3784 1.12851 21.5779 1.27555 21.7249C1.4226 21.872 1.62204 21.9546 1.82999 21.9546H7.13463C7.34256 21.9545 7.54196 21.8719 7.68898 21.7249C7.83599 21.5778 7.91858 21.3784 7.91858 21.1705C7.91858 20.9625 7.83599 20.7631 7.68898 20.6161C7.54196 20.469 7.34256 20.3864 7.13463 20.3864H3.72331L9.7859 14.3238C9.86075 14.2514 9.92044 14.1649 9.96149 14.0692C10.0025 13.9735 10.0241 13.8706 10.025 13.7665C10.0258 13.6624 10.0059 13.5592 9.96647 13.4628C9.927 13.3665 9.86874 13.279 9.79509 13.2054C9.72143 13.1318 9.63386 13.0736 9.53748 13.0342C9.4411 12.9948 9.33784 12.9751 9.23373 12.976C9.12962 12.977 9.02674 12.9986 8.9311 13.0398C8.83546 13.0809 8.74897 13.1407 8.67667 13.2156ZM3.72331 2.61365H7.13567C7.23864 2.61358 7.34059 2.59324 7.43569 2.55377C7.53079 2.5143 7.61719 2.45649 7.68995 2.38363C7.76272 2.31077 7.82041 2.22429 7.85975 2.12914C7.8991 2.03398 7.91931 1.93201 7.91924 1.82904C7.91917 1.72607 7.89882 1.62412 7.85935 1.52902C7.81989 1.43392 7.76207 1.34752 7.68921 1.27476C7.61636 1.202 7.52988 1.1443 7.43472 1.10496C7.33957 1.06562 7.23759 1.0454 7.13463 1.04547H1.82999C1.62204 1.04547 1.4226 1.12808 1.27555 1.27513C1.12851 1.42217 1.0459 1.62161 1.0459 1.82956V7.13315C1.04593 7.34108 1.12856 7.54049 1.2756 7.6875C1.42264 7.83452 1.62206 7.91711 1.82999 7.91711C2.03792 7.91711 2.23734 7.83452 2.38438 7.6875C2.53142 7.54049 2.61405 7.34108 2.61408 7.13315V3.72183L8.67667 9.78338C8.74933 9.85634 8.83568 9.91423 8.93076 9.95372C9.02585 9.99323 9.1278 10.0136 9.23076 10.0136C9.33373 10.0136 9.43568 9.99323 9.53076 9.95372C9.62585 9.91423 9.7122 9.85634 9.78485 9.78338C9.85772 9.71056 9.91552 9.6241 9.95495 9.52894C9.99439 9.43378 10.0147 9.33178 10.0147 9.22877C10.0147 9.12576 9.99439 9.02376 9.95495 8.92859C9.91552 8.83343 9.85772 8.74697 9.78485 8.67415L3.72331 2.61365ZM21.1709 15.0817C20.9629 15.0817 20.7635 15.1644 20.6165 15.3114C20.4694 15.4584 20.3868 15.6579 20.3868 15.8658V19.2782L14.3253 13.2156C14.1782 13.0685 13.9787 12.9859 13.7706 12.9859C13.5626 12.9859 13.3631 13.0685 13.216 13.2156C13.0689 13.3627 12.9863 13.5622 12.9863 13.7702C12.9863 13.9782 13.0689 14.1777 13.216 14.3248L19.2776 20.3874H15.8673C15.762 20.3836 15.657 20.4011 15.5586 20.4389C15.4602 20.4766 15.3704 20.5337 15.2946 20.6069C15.2188 20.6801 15.1585 20.7678 15.1174 20.8648C15.0762 20.9618 15.055 21.0662 15.0551 21.1715C15.0552 21.2769 15.0765 21.3812 15.1178 21.4782C15.1591 21.5751 15.2195 21.6628 15.2954 21.7358C15.3713 21.8089 15.4611 21.866 15.5596 21.9035C15.658 21.9411 15.763 21.9585 15.8684 21.9546H21.1709C21.3789 21.9546 21.5783 21.872 21.7253 21.7249C21.8724 21.5779 21.955 21.3784 21.955 21.1705V15.8658C21.955 15.6579 21.8724 15.4584 21.7253 15.3114C21.5783 15.1644 21.3789 15.0817 21.1709 15.0817Z" fill="white"/>
</svg>
