<svg width="28" height="26" viewBox="0 0 28 26" fill="none" xmlns="http://www.w3.org/2000/svg">
<path d="M14.1875 2.37374C17.4862 0.00686312 22.0356 0.340613 24.9725 3.31124C26.5506 4.90874 27.4375 7.08624 27.4375 9.35749C27.4375 11.6287 26.55 13.8062 24.9737 15.4025L16.3481 24.1775C16.0451 24.496 15.6805 24.7497 15.2766 24.9233C14.8727 25.0969 14.4378 25.1868 13.9981 25.1875C13.5605 25.1872 13.1275 25.0983 12.7251 24.9262C12.3228 24.7541 11.9594 24.5024 11.6569 24.1862L3.02312 15.3956C1.44813 13.7981 0.5625 11.6225 0.5625 9.35374C0.5625 7.08499 1.44812 4.90874 3.02375 3.31061C5.96 0.340613 10.51 0.00686288 13.8087 2.37374L13.9975 2.51374L14.1875 2.37374ZM23.6388 4.62874C21.1594 2.12124 17.2181 2.03186 14.635 4.42499L13.9975 5.01499L13.3612 4.42499C10.7775 2.03186 6.83625 2.12124 4.35812 4.62811C3.13 5.87311 2.4375 7.57561 2.4375 9.35311C2.4375 11.1312 3.13 12.8337 4.35938 14.08L13.0031 22.8812C13.2681 23.1581 13.6262 23.3125 13.9981 23.3125C14.37 23.3125 14.7281 23.1581 15.0019 22.8719L23.6375 14.0862C24.8681 12.8412 25.5619 11.1375 25.5619 9.35749C25.5619 7.57811 24.8687 5.87374 23.6388 4.62874Z" fill="white"/>
</svg>
