<svg width="25" height="25" viewBox="0 0 25 25" fill="none" xmlns="http://www.w3.org/2000/svg">
<path d="M20.9887 19.0112L18.6547 14.9707C19.729 13.6035 20.3124 11.9263 20.3124 10.1587C20.3124 8.07129 19.4995 6.11084 18.0248 4.63379C16.5478 3.15674 14.5873 2.34375 12.4999 2.34375C10.4125 2.34375 8.4521 3.15674 6.97505 4.63135C5.50044 6.1084 4.68745 8.06885 4.68745 10.1562C4.68745 12.0874 5.38325 13.9111 6.65766 15.3418L4.54096 19.0112C4.27485 19.4727 4.31147 20.0439 4.63618 20.4663C4.96089 20.8887 5.50288 21.0718 6.01557 20.9351L7.40473 20.564L7.77583 21.9507C7.91255 22.4658 8.34467 22.8418 8.87202 22.9126C8.93061 22.9199 8.98676 22.9248 9.04536 22.9248C9.50923 22.9248 9.94135 22.6782 10.1806 22.2681L12.6635 17.9688C12.7319 17.9663 12.8002 17.9663 12.8686 17.9614L15.3515 22.2656C15.5883 22.6758 16.0205 22.9224 16.4843 22.9224C16.5405 22.9224 16.5991 22.9175 16.6577 22.9102C17.185 22.8418 17.6147 22.4634 17.7539 21.9482L18.1249 20.5591L19.5117 20.9302C20.0268 21.0669 20.5688 20.8838 20.8911 20.4614C21.2133 20.0391 21.2548 19.4702 20.9887 19.0112ZM8.081 5.7373C9.26264 4.55566 10.83 3.90625 12.4999 3.90625C14.1699 3.90625 15.7397 4.55566 16.9189 5.7373C18.1005 6.91895 18.7499 8.48633 18.7499 10.1562C18.7499 11.5332 18.3056 12.8442 17.4877 13.9233L17.1118 14.3384C16.0986 15.4565 14.7045 16.167 13.1884 16.3354L12.6367 16.3965L12.2534 16.3818C10.7177 16.3208 9.26753 15.708 8.17378 14.6558L7.90278 14.3945C6.83589 13.2349 6.24995 11.7407 6.24995 10.1562C6.24995 8.48633 6.89936 6.9165 8.081 5.7373ZM9.12837 20.9595L8.79145 19.7046C8.71577 19.4214 8.5351 19.187 8.2812 19.0405C8.11274 18.9429 7.92475 18.894 7.73676 18.894C7.64155 18.894 7.54633 18.9062 7.45112 18.9307L6.19624 19.2676L7.83686 16.4258C8.76216 17.1167 9.81928 17.5879 10.9448 17.8149L9.12837 20.9595ZM18.0761 18.9307C17.4951 18.7744 16.892 19.1211 16.7358 19.7046L16.3989 20.9619L14.519 17.7075C15.6176 17.4146 16.6406 16.8848 17.5219 16.1401L19.3286 19.27L18.0761 18.9307Z" fill="#9A9BFF"/>
<path d="M12.5 13.6719C14.4385 13.6719 16.0156 12.0947 16.0156 10.1562C16.0156 8.21777 14.4385 6.64062 12.5 6.64062C10.5615 6.64062 8.98438 8.21777 8.98438 10.1562C8.98438 12.0947 10.5615 13.6719 12.5 13.6719ZM12.5 8.20312C13.5767 8.20312 14.4531 9.07959 14.4531 10.1562C14.4531 11.2329 13.5767 12.1094 12.5 12.1094C11.4233 12.1094 10.5469 11.2329 10.5469 10.1562C10.5469 9.07959 11.4233 8.20312 12.5 8.20312Z" fill="#9A9BFF"/>
</svg>
