<svg width="24" height="24" viewBox="0 0 24 24" fill="none" xmlns="http://www.w3.org/2000/svg">
<path d="M20.6898 3.13301C20.6898 1.40269 19.2871 0 17.5568 0C15.8264 0 14.4237 1.40269 14.4237 3.13301C14.4237 3.82871 14.6521 4.49195 15.066 5.03375L15.7237 4.53133L15.195 3.89463L5.95116 11.5703L6.47984 12.207L7.08694 11.6446C6.4983 11.0092 5.67187 10.6404 4.78828 10.6404C3.05797 10.6404 1.65527 12.0431 1.65527 13.7734C1.65527 15.5037 3.05797 16.9064 4.78828 16.9064C5.98968 16.9064 7.0693 16.2236 7.59471 15.1673L6.484 15.5391L16.5489 20.565L16.9186 19.8246L16.1807 19.4499C15.9595 19.8856 15.8425 20.3688 15.8425 20.867C15.8425 22.5973 17.2452 24 18.9755 24C20.7058 24 22.1085 22.5973 22.1085 20.867C22.1085 20.4856 22.0399 20.1123 21.9077 19.7617L20.359 20.3457C20.4211 20.5104 20.4533 20.6858 20.4533 20.867C20.4533 21.6832 19.7917 22.3448 18.9755 22.3448C18.1593 22.3448 17.4976 21.6832 17.4976 20.867C17.4976 20.6307 17.5525 20.4041 17.6565 20.1993L18.0338 19.4564L17.2883 19.0842L7.22344 14.0583L6.48186 13.688L6.11272 14.4302C5.86445 14.9293 5.35545 15.2512 4.78828 15.2512C3.97209 15.2512 3.31045 14.5896 3.31045 13.7734C3.31045 12.9572 3.97209 12.2956 4.78828 12.2956C5.2061 12.2956 5.59418 12.4687 5.87275 12.7694L6.40547 13.3445L7.00853 12.8437L16.2524 5.16803L16.8637 4.66037L16.3813 4.02891C16.186 3.77324 16.0789 3.46235 16.0789 3.13301C16.0789 2.31682 16.7406 1.65517 17.5568 1.65517C18.3729 1.65517 19.0346 2.31682 19.0346 3.13301C19.0346 3.47363 18.92 3.79451 18.7121 4.05461L20.005 5.08804C20.4454 4.53713 20.6898 3.85264 20.6898 3.13301ZM17.5568 4.61084C17.0895 4.61084 16.6599 4.3936 16.3813 4.02891L15.066 5.03375C15.6545 5.80405 16.5682 6.26601 17.5568 6.26601C18.521 6.26601 19.4147 5.82656 20.005 5.08804L18.7121 4.05461C18.4326 4.40426 18.0125 4.61084 17.5568 4.61084ZM7.92128 13.7734C7.92128 12.9739 7.61949 12.2194 7.08694 11.6446L5.87275 12.7694C6.12453 13.0412 6.26611 13.3951 6.26611 13.7734C6.26611 14.0054 6.21318 14.2282 6.11272 14.4302L7.59471 15.1673C7.80845 14.7375 7.92128 14.2627 7.92128 13.7734ZM18.9755 17.734C17.7834 17.734 16.7107 18.4062 16.1807 19.4499L17.6565 20.1993C17.907 19.7061 18.4127 19.3892 18.9755 19.3892C19.5959 19.3892 20.1437 19.7749 20.359 20.3457L21.9077 19.7617C21.4513 18.5515 20.2903 17.734 18.9755 17.734Z" fill="white"/>
</svg>
