<svg width="18" height="18" viewBox="0 0 18 18" fill="none" xmlns="http://www.w3.org/2000/svg">
<path d="M17.9388 8.40639C17.9052 8.20213 17.7259 8.05166 17.5181 8.05166H17.3135L15.2354 2.56782L15.2695 2.47799H15.6239V2.47852C15.9111 2.47852 16.143 2.1869 16.143 1.82672C16.143 1.46655 15.9111 1.17493 15.6243 1.17493H2.36808C2.08068 1.17493 1.84847 1.46655 1.84847 1.82725C1.84847 2.1869 2.08068 2.47782 2.36755 2.47782H2.68009L2.71437 2.56817L0.636284 8.05219H0.50603C0.297905 8.05219 0.11896 8.20266 0.0853857 8.40692C0.0584912 8.56477 0.0472412 8.69766 0.0472412 8.82633C0.0472412 10.4196 1.51273 11.7157 3.31431 11.7162V11.7158C5.11818 11.7158 6.58384 10.4198 6.58384 8.82651C6.58384 8.69784 6.57259 8.56495 6.5457 8.40709C6.51212 8.20284 6.33283 8.05237 6.12505 8.05237H5.92044L3.84236 2.56834L3.87664 2.47799H8.39755V15.4137C8.39755 15.451 8.40494 15.4872 8.41882 15.5217H6.44041C6.12699 15.5217 5.87211 15.8293 5.87211 16.207C5.87211 16.5843 6.12699 16.8924 6.44041 16.8924H11.5558C11.7059 16.8935 11.8502 16.8217 11.9569 16.6931C12.0636 16.5646 12.1238 16.3895 12.1241 16.207C12.1241 15.8293 11.8692 15.5217 11.5558 15.5217H9.66371C9.67795 15.4867 9.6855 15.4498 9.6855 15.4118V2.47782H14.0735L14.1076 2.56764L12.0295 8.05166H11.8993C11.6912 8.05166 11.5122 8.20213 11.4786 8.40639C11.4518 8.56424 11.4405 8.69713 11.4405 8.82581C11.4405 10.4191 12.906 11.7151 14.7076 11.7156V11.7153C16.5114 11.7153 17.9771 10.4193 17.9771 8.82598C17.9769 8.69713 17.9657 8.56442 17.9388 8.40639ZM3.32099 10.5645C2.24169 10.5645 1.36085 9.91459 1.32376 9.10547H5.31787C5.28113 9.91459 4.40011 10.5645 3.32099 10.5645ZM4.79246 8.05219H1.76427L3.27845 4.05651L4.79246 8.05219ZM14.6715 4.05598L16.1857 8.05166H13.1574L14.6715 4.05598ZM14.7143 10.5639C13.635 10.5639 12.7541 9.91407 12.717 9.10495H16.7111C16.6744 9.91407 15.7932 10.5639 14.7143 10.5639Z" fill="#9A9BFF"/>
</svg>
