<svg width="29" height="29" viewBox="0 0 29 29" fill="none" xmlns="http://www.w3.org/2000/svg">
<rect width="29" height="29" rx="10" fill="white" fill-opacity="0.3"/>
<g clip-path="url(#clip0_340_1267)">
<path d="M20.7997 8.20971C20.7072 8.117 20.5973 8.04344 20.4764 7.99325C20.3554 7.94306 20.2257 7.91723 20.0947 7.91723C19.9638 7.91723 19.8341 7.94306 19.7131 7.99325C19.5921 8.04344 19.4822 8.117 19.3897 8.20971L14.4997 13.0897L9.60973 8.19971C9.51722 8.107 9.40733 8.03344 9.28636 7.98325C9.16538 7.93306 9.0357 7.90723 8.90473 7.90723C8.77375 7.90723 8.64407 7.93306 8.52309 7.98325C8.40212 8.03344 8.29223 8.107 8.19973 8.19971C7.80973 8.58971 7.80973 9.21971 8.19973 9.60971L13.0897 14.4997L8.19973 19.3897C7.80973 19.7797 7.80973 20.4097 8.19973 20.7997C8.58973 21.1897 9.21973 21.1897 9.60973 20.7997L14.4997 15.9097L19.3897 20.7997C19.7797 21.1897 20.4097 21.1897 20.7997 20.7997C21.1897 20.4097 21.1897 19.7797 20.7997 19.3897L15.9097 14.4997L20.7997 9.60971C21.1797 9.22971 21.1797 8.58971 20.7997 8.20971Z" fill="#0C0512"/>
</g>
<defs>
<clipPath id="clip0_340_1267">
<rect width="24" height="24" fill="white" transform="translate(2.5 2.5)"/>
</clipPath>
</defs>
</svg>
