<svg width="29" height="29" viewBox="0 0 29 29" fill="none" xmlns="http://www.w3.org/2000/svg">
<rect width="29" height="29" rx="10" fill="#4F60FA"/>
<g clip-path="url(#clip0_340_1263)">
<path d="M20.4998 9.20001L12.0198 17.68L8.47984 14.14C8.38734 14.0473 8.27745 13.9737 8.15648 13.9235C8.0355 13.8734 7.90582 13.8475 7.77484 13.8475C7.64387 13.8475 7.51419 13.8734 7.39321 13.9235C7.27224 13.9737 7.16235 14.0473 7.06984 14.14C6.67984 14.53 6.67984 15.16 7.06984 15.55L11.3098 19.79C11.6998 20.18 12.3298 20.18 12.7198 19.79L21.8998 10.61C22.2898 10.22 22.2898 9.58001 21.8898 9.19001C21.5198 8.81001 20.8898 8.81001 20.4998 9.20001Z" fill="white"/>
</g>
<defs>
<clipPath id="clip0_340_1263">
<rect width="24" height="24" fill="white" transform="translate(2.5 2.5)"/>
</clipPath>
</defs>
</svg>
