<svg width="338" height="237" viewBox="0 0 338 237" fill="none" xmlns="http://www.w3.org/2000/svg">
<rect x="0.5" y="0.5" width="355" height="220" rx="9.5" fill="url(#paint0_linear_340_1190)" stroke="url(#paint1_linear_340_1190)"/>
<rect x="18" y="17" width="353" height="219" rx="9" fill="url(#paint2_linear_340_1190)" fill-opacity="0.5" stroke="url(#paint3_linear_340_1190)" stroke-width="2"/>
<path d="M286.5 117C291.747 117 296 121.253 296 126.5C296 131.747 291.747 136 286.5 136H57.5C52.2533 136 48 131.747 48 126.5C48 121.253 52.2533 117 57.5 117L286.5 117Z" fill="white" fill-opacity="0.2"/>
<path d="M162.689 117C167.922 117 172.163 121.242 172.163 126.474C172.163 131.706 167.922 135.947 162.689 135.947H57.4776C52.2454 135.947 48.0039 131.706 48.0039 126.474C48.0039 121.242 52.2454 117 57.4776 117H162.689Z" fill="url(#paint4_linear_340_1190)"/>
<path d="M39.2848 66V56.1818H41.1321V57.7415H41.2344C41.4134 57.2131 41.7287 56.7976 42.1804 56.495C42.6364 56.1882 43.152 56.0348 43.7273 56.0348C43.8466 56.0348 43.9872 56.0391 44.1491 56.0476C44.3153 56.0561 44.4453 56.0668 44.5391 56.0795V57.9077C44.4624 57.8864 44.326 57.8629 44.13 57.8374C43.9339 57.8075 43.7379 57.7926 43.5419 57.7926C43.0902 57.7926 42.6875 57.8885 42.3338 58.0803C41.9844 58.2678 41.7074 58.5298 41.5028 58.8665C41.2983 59.1989 41.196 59.5781 41.196 60.0043V66H39.2848ZM50.073 66.1982C49.1056 66.1982 48.2725 65.9915 47.5737 65.5781C46.8791 65.1605 46.3422 64.5746 45.9629 63.8203C45.5879 63.0618 45.4004 62.1733 45.4004 61.1548C45.4004 60.1491 45.5879 59.2628 45.9629 58.4957C46.3422 57.7287 46.8706 57.13 47.5481 56.6996C48.2299 56.2692 49.0268 56.054 49.9387 56.054C50.4927 56.054 51.0297 56.1456 51.5495 56.3288C52.0694 56.5121 52.536 56.7997 52.9494 57.1918C53.3627 57.5838 53.6887 58.093 53.9274 58.7195C54.166 59.3416 54.2853 60.098 54.2853 60.9886V61.6662H46.4806V60.2344H52.4125C52.4125 59.7315 52.3102 59.2862 52.1056 58.8984C51.9011 58.5064 51.6135 58.1974 51.2427 57.9716C50.8762 57.7457 50.4458 57.6328 49.9515 57.6328C49.4146 57.6328 48.9458 57.7649 48.5453 58.0291C48.149 58.2891 47.8422 58.63 47.6248 59.0518C47.4118 59.4695 47.3052 59.9233 47.3052 60.4134V61.532C47.3052 62.1882 47.4203 62.7464 47.6504 63.2067C47.8848 63.6669 48.2108 64.0185 48.6284 64.2614C49.046 64.5 49.5339 64.6193 50.0922 64.6193C50.4544 64.6193 50.7846 64.5682 51.0829 64.4659C51.3812 64.3594 51.639 64.2017 51.8564 63.9929C52.0737 63.7841 52.2399 63.5263 52.3549 63.2195L54.1639 63.5455C54.019 64.0781 53.7591 64.5447 53.3841 64.9453C53.0133 65.3416 52.5467 65.6506 51.9842 65.8722C51.426 66.0895 50.7889 66.1982 50.073 66.1982ZM64.5238 56.1818L60.9634 66H58.918L55.3512 56.1818H57.4031L59.8896 63.7372H59.9918L62.4719 56.1818H64.5238ZM70.2175 66.1982C69.2502 66.1982 68.4171 65.9915 67.7182 65.5781C67.0236 65.1605 66.4867 64.5746 66.1074 63.8203C65.7324 63.0618 65.5449 62.1733 65.5449 61.1548C65.5449 60.1491 65.7324 59.2628 66.1074 58.4957C66.4867 57.7287 67.0151 57.13 67.6926 56.6996C68.3745 56.2692 69.1713 56.054 70.0833 56.054C70.6373 56.054 71.1742 56.1456 71.6941 56.3288C72.214 56.5121 72.6806 56.7997 73.0939 57.1918C73.5073 57.5838 73.8333 58.093 74.0719 58.7195C74.3105 59.3416 74.4299 60.098 74.4299 60.9886V61.6662H66.6252V60.2344H72.557C72.557 59.7315 72.4547 59.2862 72.2502 58.8984C72.0456 58.5064 71.758 58.1974 71.3873 57.9716C71.0208 57.7457 70.5904 57.6328 70.0961 57.6328C69.5591 57.6328 69.0904 57.7649 68.6898 58.0291C68.2935 58.2891 67.9867 58.63 67.7694 59.0518C67.5563 59.4695 67.4498 59.9233 67.4498 60.4134V61.532C67.4498 62.1882 67.5648 62.7464 67.7949 63.2067C68.0293 63.6669 68.3553 64.0185 68.7729 64.2614C69.1905 64.5 69.6784 64.6193 70.2367 64.6193C70.5989 64.6193 70.9292 64.5682 71.2275 64.4659C71.5257 64.3594 71.7836 64.2017 72.0009 63.9929C72.2182 63.7841 72.3844 63.5263 72.4995 63.2195L74.3084 63.5455C74.1635 64.0781 73.9036 64.5447 73.5286 64.9453C73.1578 65.3416 72.6912 65.6506 72.1287 65.8722C71.5705 66.0895 70.9334 66.1982 70.2175 66.1982ZM78.4616 60.1705V66H76.5504V56.1818H78.3849V57.7798H78.5064C78.7322 57.2599 79.0859 56.8423 79.5675 56.527C80.0533 56.2116 80.6648 56.054 81.402 56.054C82.071 56.054 82.657 56.1946 83.1598 56.4759C83.6626 56.7528 84.0526 57.1662 84.3295 57.7159C84.6065 58.2656 84.745 58.9453 84.745 59.755V66H82.8338V59.9851C82.8338 59.2734 82.6484 58.7173 82.2777 58.3168C81.907 57.9119 81.3977 57.7095 80.75 57.7095C80.3068 57.7095 79.9126 57.8054 79.5675 57.9972C79.2266 58.1889 78.956 58.4702 78.7557 58.8409C78.5597 59.2074 78.4616 59.6506 78.4616 60.1705ZM93.5277 61.9283V56.1818H95.4453V66H93.5661V64.2997H93.4638C93.2379 64.8239 92.8757 65.2607 92.3771 65.6101C91.8828 65.9553 91.267 66.1278 90.5298 66.1278C89.8991 66.1278 89.3409 65.9893 88.8551 65.7124C88.3736 65.4311 87.9943 65.0156 87.7173 64.4659C87.4446 63.9162 87.3082 63.2365 87.3082 62.4268V56.1818H89.2195V62.1967C89.2195 62.8658 89.4048 63.3984 89.7756 63.7947C90.1463 64.1911 90.6278 64.3892 91.2202 64.3892C91.5781 64.3892 91.9339 64.2997 92.2876 64.1207C92.6456 63.9418 92.9418 63.6712 93.1761 63.3089C93.4148 62.9467 93.532 62.4865 93.5277 61.9283ZM102.245 66.1982C101.278 66.1982 100.444 65.9915 99.7456 65.5781C99.051 65.1605 98.514 64.5746 98.1348 63.8203C97.7598 63.0618 97.5723 62.1733 97.5723 61.1548C97.5723 60.1491 97.7598 59.2628 98.1348 58.4957C98.514 57.7287 99.0424 57.13 99.72 56.6996C100.402 56.2692 101.199 56.054 102.111 56.054C102.665 56.054 103.202 56.1456 103.721 56.3288C104.241 56.5121 104.708 56.7997 105.121 57.1918C105.535 57.5838 105.861 58.093 106.099 58.7195C106.338 59.3416 106.457 60.098 106.457 60.9886V61.6662H98.6525V60.2344H104.584C104.584 59.7315 104.482 59.2862 104.278 58.8984C104.073 58.5064 103.785 58.1974 103.415 57.9716C103.048 57.7457 102.618 57.6328 102.123 57.6328C101.586 57.6328 101.118 57.7649 100.717 58.0291C100.321 58.2891 100.014 58.63 99.7967 59.0518C99.5836 59.4695 99.4771 59.9233 99.4771 60.4134V61.532C99.4771 62.1882 99.5922 62.7464 99.8223 63.2067C100.057 63.6669 100.383 64.0185 100.8 64.2614C101.218 64.5 101.706 64.6193 102.264 64.6193C102.626 64.6193 102.956 64.5682 103.255 64.4659C103.553 64.3594 103.811 64.2017 104.028 63.9929C104.246 63.7841 104.412 63.5263 104.527 63.2195L106.336 63.5455C106.191 64.0781 105.931 64.5447 105.556 64.9453C105.185 65.3416 104.719 65.6506 104.156 65.8722C103.598 66.0895 102.961 66.1982 102.245 66.1982ZM120.699 58.5788L118.966 58.8857C118.894 58.6641 118.779 58.4531 118.621 58.2528C118.468 58.0526 118.259 57.8885 117.995 57.7607C117.731 57.6328 117.4 57.5689 117.004 57.5689C116.463 57.5689 116.011 57.6903 115.649 57.9332C115.287 58.1719 115.106 58.4808 115.106 58.8601C115.106 59.1882 115.227 59.4524 115.47 59.6527C115.713 59.853 116.105 60.017 116.646 60.1449L118.206 60.5028C119.109 60.7116 119.782 61.0334 120.226 61.468C120.669 61.9027 120.89 62.4673 120.89 63.1619C120.89 63.75 120.72 64.2741 120.379 64.7344C120.042 65.1903 119.572 65.5483 118.966 65.8082C118.366 66.0682 117.669 66.1982 116.876 66.1982C115.777 66.1982 114.88 65.9638 114.185 65.495C113.491 65.022 113.064 64.3509 112.907 63.4815L114.754 63.2003C114.869 63.6818 115.106 64.0462 115.464 64.2933C115.822 64.5362 116.288 64.6577 116.863 64.6577C117.49 64.6577 117.991 64.5277 118.366 64.2678C118.741 64.0036 118.928 63.6818 118.928 63.3026C118.928 62.9957 118.813 62.7379 118.583 62.5291C118.357 62.3203 118.01 62.1626 117.541 62.0561L115.879 61.6918C114.963 61.483 114.285 61.1506 113.846 60.6946C113.412 60.2386 113.194 59.6612 113.194 58.9624C113.194 58.3828 113.356 57.8757 113.68 57.4411C114.004 57.0064 114.452 56.6676 115.023 56.4247C115.594 56.1776 116.248 56.054 116.985 56.054C118.046 56.054 118.881 56.2841 119.491 56.7443C120.1 57.2003 120.503 57.8118 120.699 58.5788ZM124.903 60.1705V66H122.992V52.9091H124.877V57.7798H124.999C125.229 57.2514 125.581 56.8317 126.054 56.5206C126.527 56.2095 127.145 56.054 127.907 56.054C128.581 56.054 129.169 56.1925 129.672 56.4695C130.179 56.7464 130.571 57.1598 130.848 57.7095C131.129 58.255 131.27 58.9368 131.27 59.755V66H129.358V59.9851C129.358 59.2649 129.173 58.7067 128.802 58.3104C128.431 57.9098 127.916 57.7095 127.255 57.7095C126.804 57.7095 126.399 57.8054 126.041 57.9972C125.687 58.1889 125.408 58.4702 125.203 58.8409C125.003 59.2074 124.903 59.6506 124.903 60.1705ZM136.677 66.2173C136.055 66.2173 135.493 66.1023 134.99 65.8722C134.487 65.6378 134.088 65.299 133.794 64.8558C133.505 64.4126 133.36 63.8693 133.36 63.2259C133.36 62.6719 133.466 62.2159 133.679 61.858C133.892 61.5 134.18 61.2166 134.542 61.0078C134.904 60.799 135.309 60.6413 135.757 60.5348C136.204 60.4283 136.66 60.3473 137.125 60.2919C137.713 60.2237 138.19 60.1683 138.556 60.1257C138.923 60.0788 139.189 60.0043 139.355 59.902C139.522 59.7997 139.605 59.6335 139.605 59.4034V59.3587C139.605 58.8004 139.447 58.3679 139.132 58.0611C138.821 57.7543 138.356 57.6009 137.738 57.6009C137.095 57.6009 136.588 57.7436 136.217 58.0291C135.85 58.3104 135.597 58.6236 135.456 58.9688L133.66 58.5597C133.873 57.9631 134.184 57.4815 134.593 57.1151C135.007 56.7443 135.482 56.4759 136.019 56.3097C136.556 56.1392 137.12 56.054 137.713 56.054C138.105 56.054 138.52 56.1009 138.959 56.1946C139.402 56.2841 139.816 56.4503 140.199 56.6932C140.587 56.9361 140.904 57.2834 141.152 57.7351C141.399 58.1825 141.522 58.7642 141.522 59.4801V66H139.656V64.6577H139.579C139.456 64.9048 139.27 65.1477 139.023 65.3864C138.776 65.625 138.458 65.8232 138.071 65.9808C137.683 66.1385 137.218 66.2173 136.677 66.2173ZM137.093 64.6832C137.621 64.6832 138.073 64.5788 138.448 64.37C138.827 64.1612 139.115 63.8885 139.311 63.5518C139.511 63.2109 139.611 62.8466 139.611 62.4588V61.1932C139.543 61.2614 139.411 61.3253 139.215 61.3849C139.023 61.4403 138.804 61.4893 138.556 61.532C138.309 61.5703 138.069 61.6065 137.834 61.6406C137.6 61.6705 137.404 61.696 137.246 61.7173C136.875 61.7642 136.537 61.843 136.23 61.9538C135.927 62.0646 135.684 62.2244 135.501 62.4332C135.322 62.6378 135.233 62.9105 135.233 63.2514C135.233 63.7244 135.407 64.0824 135.757 64.3253C136.106 64.5639 136.551 64.6832 137.093 64.6832ZM144.068 66V56.1818H145.915V57.7415H146.018C146.197 57.2131 146.512 56.7976 146.964 56.495C147.42 56.1882 147.935 56.0348 148.51 56.0348C148.63 56.0348 148.77 56.0391 148.932 56.0476C149.099 56.0561 149.229 56.0668 149.322 56.0795V57.9077C149.246 57.8864 149.109 57.8629 148.913 57.8374C148.717 57.8075 148.521 57.7926 148.325 57.7926C147.873 57.7926 147.471 57.8885 147.117 58.0803C146.768 58.2678 146.491 58.5298 146.286 58.8665C146.081 59.1989 145.979 59.5781 145.979 60.0043V66H144.068ZM154.856 66.1982C153.889 66.1982 153.056 65.9915 152.357 65.5781C151.662 65.1605 151.125 64.5746 150.746 63.8203C150.371 63.0618 150.184 62.1733 150.184 61.1548C150.184 60.1491 150.371 59.2628 150.746 58.4957C151.125 57.7287 151.654 57.13 152.331 56.6996C153.013 56.2692 153.81 56.054 154.722 56.054C155.276 56.054 155.813 56.1456 156.333 56.3288C156.853 56.5121 157.319 56.7997 157.733 57.1918C158.146 57.5838 158.472 58.093 158.711 58.7195C158.949 59.3416 159.069 60.098 159.069 60.9886V61.6662H151.264V60.2344H157.196C157.196 59.7315 157.093 59.2862 156.889 58.8984C156.684 58.5064 156.397 58.1974 156.026 57.9716C155.659 57.7457 155.229 57.6328 154.735 57.6328C154.198 57.6328 153.729 57.7649 153.328 58.0291C152.932 58.2891 152.625 58.63 152.408 59.0518C152.195 59.4695 152.088 59.9233 152.088 60.4134V61.532C152.088 62.1882 152.203 62.7464 152.434 63.2067C152.668 63.6669 152.994 64.0185 153.412 64.2614C153.829 64.5 154.317 64.6193 154.875 64.6193C155.238 64.6193 155.568 64.5682 155.866 64.4659C156.164 64.3594 156.422 64.2017 156.64 63.9929C156.857 63.7841 157.023 63.5263 157.138 63.2195L158.947 63.5455C158.802 64.0781 158.542 64.5447 158.167 64.9453C157.797 65.3416 157.33 65.6506 156.767 65.8722C156.209 66.0895 155.572 66.1982 154.856 66.1982Z" fill="white"/>
<path d="M51.75 157.119C51.108 157.119 50.5611 156.945 50.1094 156.595C49.6577 156.243 49.3125 155.733 49.0739 155.065C48.8352 154.395 48.7159 153.585 48.7159 152.636C48.7159 151.693 48.8352 150.888 49.0739 150.22C49.3153 149.55 49.6619 149.038 50.1136 148.686C50.5682 148.331 51.1136 148.153 51.75 148.153C52.3864 148.153 52.9304 148.331 53.3821 148.686C53.8366 149.038 54.1832 149.55 54.4219 150.22C54.6634 150.888 54.7841 151.693 54.7841 152.636C54.7841 153.585 54.6648 154.395 54.4261 155.065C54.1875 155.733 53.8423 156.243 53.3906 156.595C52.9389 156.945 52.392 157.119 51.75 157.119ZM51.75 156.182C52.3864 156.182 52.8807 155.875 53.233 155.261C53.5852 154.648 53.7614 153.773 53.7614 152.636C53.7614 151.881 53.6804 151.237 53.5185 150.706C53.3594 150.175 53.1293 149.77 52.8281 149.491C52.5298 149.213 52.1705 149.074 51.75 149.074C51.1193 149.074 50.6264 149.385 50.2713 150.007C49.9162 150.626 49.7386 151.503 49.7386 152.636C49.7386 153.392 49.8182 154.034 49.9773 154.562C50.1364 155.091 50.3651 155.493 50.6634 155.768C50.9645 156.044 51.3267 156.182 51.75 156.182ZM60.8523 155.364V154.903C60.8523 154.585 60.9176 154.294 61.0483 154.03C61.1818 153.763 61.375 153.55 61.6278 153.391C61.8835 153.229 62.1932 153.148 62.5568 153.148C62.9261 153.148 63.2358 153.229 63.4858 153.391C63.7358 153.55 63.9247 153.763 64.0526 154.03C64.1804 154.294 64.2443 154.585 64.2443 154.903V155.364C64.2443 155.682 64.179 155.974 64.0483 156.241C63.9205 156.506 63.7301 156.719 63.4773 156.881C63.2273 157.04 62.9205 157.119 62.5568 157.119C62.1875 157.119 61.8764 157.04 61.6236 156.881C61.3707 156.719 61.179 156.506 61.0483 156.241C60.9176 155.974 60.8523 155.682 60.8523 155.364ZM61.7216 154.903V155.364C61.7216 155.628 61.7841 155.865 61.9091 156.075C62.0341 156.283 62.25 156.386 62.5568 156.386C62.8551 156.386 63.0653 156.283 63.1875 156.075C63.3125 155.865 63.375 155.628 63.375 155.364V154.903C63.375 154.639 63.3153 154.403 63.196 154.196C63.0767 153.986 62.8636 153.881 62.5568 153.881C62.2585 153.881 62.044 153.986 61.9134 154.196C61.7855 154.403 61.7216 154.639 61.7216 154.903ZM56.5057 150.369V149.909C56.5057 149.591 56.571 149.3 56.7017 149.036C56.8352 148.768 57.0284 148.555 57.2812 148.396C57.5369 148.234 57.8466 148.153 58.2102 148.153C58.5795 148.153 58.8892 148.234 59.1392 148.396C59.3892 148.555 59.5781 148.768 59.706 149.036C59.8338 149.3 59.8977 149.591 59.8977 149.909V150.369C59.8977 150.687 59.8324 150.98 59.7017 151.247C59.5739 151.511 59.3835 151.724 59.1307 151.886C58.8807 152.045 58.5739 152.125 58.2102 152.125C57.8409 152.125 57.5298 152.045 57.277 151.886C57.0241 151.724 56.8324 151.511 56.7017 151.247C56.571 150.98 56.5057 150.687 56.5057 150.369ZM57.375 149.909V150.369C57.375 150.634 57.4375 150.871 57.5625 151.081C57.6875 151.288 57.9034 151.392 58.2102 151.392C58.5085 151.392 58.7188 151.288 58.8409 151.081C58.9659 150.871 59.0284 150.634 59.0284 150.369V149.909C59.0284 149.645 58.9688 149.409 58.8494 149.202C58.7301 148.991 58.517 148.886 58.2102 148.886C57.9119 148.886 57.6974 148.991 57.5668 149.202C57.4389 149.409 57.375 149.645 57.375 149.909ZM56.8295 157L62.8295 148.273H63.8011L57.8011 157H56.8295Z" fill="white" fill-opacity="0.5"/>
<path d="M266.972 148.273V157H265.915V149.381H265.864L263.733 150.795V149.722L265.915 148.273H266.972ZM272.328 157.119C271.686 157.119 271.139 156.945 270.688 156.595C270.236 156.243 269.891 155.733 269.652 155.065C269.413 154.395 269.294 153.585 269.294 152.636C269.294 151.693 269.413 150.888 269.652 150.22C269.893 149.55 270.24 149.038 270.692 148.686C271.146 148.331 271.692 148.153 272.328 148.153C272.964 148.153 273.509 148.331 273.96 148.686C274.415 149.038 274.761 149.55 275 150.22C275.241 150.888 275.362 151.693 275.362 152.636C275.362 153.585 275.243 154.395 275.004 155.065C274.766 155.733 274.42 156.243 273.969 156.595C273.517 156.945 272.97 157.119 272.328 157.119ZM272.328 156.182C272.964 156.182 273.459 155.875 273.811 155.261C274.163 154.648 274.339 153.773 274.339 152.636C274.339 151.881 274.259 151.237 274.097 150.706C273.938 150.175 273.707 149.77 273.406 149.491C273.108 149.213 272.749 149.074 272.328 149.074C271.697 149.074 271.205 149.385 270.849 150.007C270.494 150.626 270.317 151.503 270.317 152.636C270.317 153.392 270.396 154.034 270.555 154.562C270.714 155.091 270.943 155.493 271.241 155.768C271.543 156.044 271.905 156.182 272.328 156.182ZM279.828 157.119C279.186 157.119 278.639 156.945 278.188 156.595C277.736 156.243 277.391 155.733 277.152 155.065C276.913 154.395 276.794 153.585 276.794 152.636C276.794 151.693 276.913 150.888 277.152 150.22C277.393 149.55 277.74 149.038 278.192 148.686C278.646 148.331 279.192 148.153 279.828 148.153C280.464 148.153 281.009 148.331 281.46 148.686C281.915 149.038 282.261 149.55 282.5 150.22C282.741 150.888 282.862 151.693 282.862 152.636C282.862 153.585 282.743 154.395 282.504 155.065C282.266 155.733 281.92 156.243 281.469 156.595C281.017 156.945 280.47 157.119 279.828 157.119ZM279.828 156.182C280.464 156.182 280.959 155.875 281.311 155.261C281.663 154.648 281.839 153.773 281.839 152.636C281.839 151.881 281.759 151.237 281.597 150.706C281.438 150.175 281.207 149.77 280.906 149.491C280.608 149.213 280.249 149.074 279.828 149.074C279.197 149.074 278.705 149.385 278.349 150.007C277.994 150.626 277.817 151.503 277.817 152.636C277.817 153.392 277.896 154.034 278.055 154.562C278.214 155.091 278.443 155.493 278.741 155.768C279.043 156.044 279.405 156.182 279.828 156.182ZM288.93 155.364V154.903C288.93 154.585 288.996 154.294 289.126 154.03C289.26 153.763 289.453 153.55 289.706 153.391C289.962 153.229 290.271 153.148 290.635 153.148C291.004 153.148 291.314 153.229 291.564 153.391C291.814 153.55 292.003 153.763 292.131 154.03C292.259 154.294 292.322 154.585 292.322 154.903V155.364C292.322 155.682 292.257 155.974 292.126 156.241C291.999 156.506 291.808 156.719 291.555 156.881C291.305 157.04 290.999 157.119 290.635 157.119C290.266 157.119 289.955 157.04 289.702 156.881C289.449 156.719 289.257 156.506 289.126 156.241C288.996 155.974 288.93 155.682 288.93 155.364ZM289.8 154.903V155.364C289.8 155.628 289.862 155.865 289.987 156.075C290.112 156.283 290.328 156.386 290.635 156.386C290.933 156.386 291.143 156.283 291.266 156.075C291.391 155.865 291.453 155.628 291.453 155.364V154.903C291.453 154.639 291.393 154.403 291.274 154.196C291.155 153.986 290.942 153.881 290.635 153.881C290.337 153.881 290.122 153.986 289.991 154.196C289.864 154.403 289.8 154.639 289.8 154.903ZM284.584 150.369V149.909C284.584 149.591 284.649 149.3 284.78 149.036C284.913 148.768 285.107 148.555 285.359 148.396C285.615 148.234 285.925 148.153 286.288 148.153C286.658 148.153 286.967 148.234 287.217 148.396C287.467 148.555 287.656 148.768 287.784 149.036C287.912 149.3 287.976 149.591 287.976 149.909V150.369C287.976 150.687 287.911 150.98 287.78 151.247C287.652 151.511 287.462 151.724 287.209 151.886C286.959 152.045 286.652 152.125 286.288 152.125C285.919 152.125 285.608 152.045 285.355 151.886C285.102 151.724 284.911 151.511 284.78 151.247C284.649 150.98 284.584 150.687 284.584 150.369ZM285.453 149.909V150.369C285.453 150.634 285.516 150.871 285.641 151.081C285.766 151.288 285.982 151.392 286.288 151.392C286.587 151.392 286.797 151.288 286.919 151.081C287.044 150.871 287.107 150.634 287.107 150.369V149.909C287.107 149.645 287.047 149.409 286.928 149.202C286.808 148.991 286.595 148.886 286.288 148.886C285.99 148.886 285.776 148.991 285.645 149.202C285.517 149.409 285.453 149.645 285.453 149.909ZM284.908 157L290.908 148.273H291.879L285.879 157H284.908Z" fill="white" fill-opacity="0.5"/>
<defs>
<linearGradient id="paint0_linear_340_1190" x1="178" y1="0" x2="178" y2="221" gradientUnits="userSpaceOnUse">
<stop stop-color="white" stop-opacity="0.07"/>
<stop offset="1" stop-color="white" stop-opacity="0"/>
</linearGradient>
<linearGradient id="paint1_linear_340_1190" x1="178" y1="0" x2="178" y2="221" gradientUnits="userSpaceOnUse">
<stop stop-color="#201639"/>
<stop offset="1" stop-color="#201639" stop-opacity="0"/>
</linearGradient>
<linearGradient id="paint2_linear_340_1190" x1="194.5" y1="16" x2="195" y2="268" gradientUnits="userSpaceOnUse">
<stop stop-color="white" stop-opacity="0.2"/>
<stop offset="1" stop-color="white" stop-opacity="0"/>
</linearGradient>
<linearGradient id="paint3_linear_340_1190" x1="194.5" y1="16" x2="194.5" y2="237" gradientUnits="userSpaceOnUse">
<stop stop-color="#1F1538"/>
<stop offset="1" stop-color="#1F1538" stop-opacity="0"/>
</linearGradient>
<linearGradient id="paint4_linear_340_1190" x1="172.163" y1="126.474" x2="48.0039" y2="126.474" gradientUnits="userSpaceOnUse">
<stop stop-color="#C7CAF5"/>
<stop offset="1" stop-color="#E9C6C5"/>
</linearGradient>
</defs>
</svg>
