<svg width="369" height="138" viewBox="0 0 369 138" fill="none" xmlns="http://www.w3.org/2000/svg">
<g filter="url(#filter0_i_340_2109)">
<circle cx="300" cy="69" r="69" fill="#0A0A0A"/>
</g>
<circle cx="300" cy="69" r="68.5" stroke="#848484"/>
<rect y="43" width="53" height="54" rx="10" fill="#0A0A0A"/>
<rect x="0.5" y="43.5" width="52" height="53" rx="9.5" stroke="white" stroke-opacity="0.5"/>
<rect x="77" y="43" width="53" height="54" rx="10" fill="#0A0A0A"/>
<rect x="77.5" y="43.5" width="52" height="53" rx="9.5" stroke="white" stroke-opacity="0.5"/>
<rect x="154" y="43" width="53" height="54" rx="10" fill="#0A0A0A"/>
<rect x="154.5" y="43.5" width="52" height="53" rx="9.5" stroke="white" stroke-opacity="0.5"/>
<mask id="mask0_340_2109" style="mask-type:alpha" maskUnits="userSpaceOnUse" x="231" y="0" width="138" height="138">
<circle cx="300" cy="69" r="68.5" fill="#0A0A0A" stroke="#848484"/>
</mask>
<g mask="url(#mask0_340_2109)">
<rect x="236" y="41" width="57" height="56" rx="10" fill="#494BEB"/>
<rect x="236.5" y="41.5" width="56" height="55" rx="9.5" stroke="white" stroke-opacity="0.5"/>
<path d="M260 67.5C260 67.7652 260.105 68.0196 260.293 68.2071C260.48 68.3946 260.735 68.5 261 68.5C261.265 68.5 261.52 68.3946 261.707 68.2071C261.895 68.0196 262 67.7652 262 67.5C262 67.2348 261.895 66.9804 261.707 66.7929C261.52 66.6054 261.265 66.5 261 66.5C260.735 66.5 260.48 66.6054 260.293 66.7929C260.105 66.9804 260 67.2348 260 67.5Z" fill="white"/>
<path d="M264 67.5C264 67.7652 264.105 68.0196 264.293 68.2071C264.48 68.3946 264.735 68.5 265 68.5C265.265 68.5 265.52 68.3946 265.707 68.2071C265.895 68.0196 266 67.7652 266 67.5C266 67.2348 265.895 66.9804 265.707 66.7929C265.52 66.6054 265.265 66.5 265 66.5C264.735 66.5 264.48 66.6054 264.293 66.7929C264.105 66.9804 264 67.2348 264 67.5Z" fill="white"/>
<path d="M268 67.5C268 67.7652 268.105 68.0196 268.293 68.2071C268.48 68.3946 268.735 68.5 269 68.5C269.265 68.5 269.52 68.3946 269.707 68.2071C269.895 68.0196 270 67.7652 270 67.5C270 67.2348 269.895 66.9804 269.707 66.7929C269.52 66.6054 269.265 66.5 269 66.5C268.735 66.5 268.48 66.6054 268.293 66.7929C268.105 66.9804 268 67.2348 268 67.5Z" fill="white"/>
<path d="M273.164 60.5H256.836C255.822 60.5 255 61.327 255 62.3466V72.4833C255 73.5029 255.822 74.3299 256.836 74.3299H261.055V76.9682C261.062 77.0487 261.086 77.1312 261.131 77.2059C261.291 77.4868 261.652 77.5831 261.932 77.422L262.227 77.2511L267.121 74.4085C267.211 74.3574 267.311 74.3299 267.414 74.3299H273.164C274.178 74.3299 275 73.5029 275 72.4833V62.3466C275 61.327 274.178 60.5 273.164 60.5ZM273.828 72.4833C273.828 72.8526 273.531 73.1512 273.164 73.1512H267.068C266.99 73.1512 266.91 73.1689 266.842 73.2102H266.84L264.912 74.3299L262.227 75.8897V73.7406C262.227 73.4145 261.965 73.1512 261.641 73.1512H256.836C256.469 73.1512 256.172 72.8526 256.172 72.4833V62.3466C256.172 61.9773 256.469 61.6787 256.836 61.6787H273.164C273.531 61.6787 273.828 61.9773 273.828 62.3466V72.4833Z" fill="white"/>
<rect x="320" y="41" width="57" height="56" rx="10" fill="#494BEB"/>
<rect x="320.5" y="41.5" width="56" height="55" rx="9.5" stroke="white" stroke-opacity="0.5"/>
<path d="M344 67.5C344 67.7652 344.105 68.0196 344.293 68.2071C344.48 68.3946 344.735 68.5 345 68.5C345.265 68.5 345.52 68.3946 345.707 68.2071C345.895 68.0196 346 67.7652 346 67.5C346 67.2348 345.895 66.9804 345.707 66.7929C345.52 66.6054 345.265 66.5 345 66.5C344.735 66.5 344.48 66.6054 344.293 66.7929C344.105 66.9804 344 67.2348 344 67.5Z" fill="white"/>
<path d="M348 67.5C348 67.7652 348.105 68.0196 348.293 68.2071C348.48 68.3946 348.735 68.5 349 68.5C349.265 68.5 349.52 68.3946 349.707 68.2071C349.895 68.0196 350 67.7652 350 67.5C350 67.2348 349.895 66.9804 349.707 66.7929C349.52 66.6054 349.265 66.5 349 66.5C348.735 66.5 348.48 66.6054 348.293 66.7929C348.105 66.9804 348 67.2348 348 67.5Z" fill="white"/>
<path d="M352 67.5C352 67.7652 352.105 68.0196 352.293 68.2071C352.48 68.3946 352.735 68.5 353 68.5C353.265 68.5 353.52 68.3946 353.707 68.2071C353.895 68.0196 354 67.7652 354 67.5C354 67.2348 353.895 66.9804 353.707 66.7929C353.52 66.6054 353.265 66.5 353 66.5C352.735 66.5 352.48 66.6054 352.293 66.7929C352.105 66.9804 352 67.2348 352 67.5Z" fill="white"/>
<path d="M357.164 60.5H340.836C339.822 60.5 339 61.327 339 62.3466V72.4833C339 73.5029 339.822 74.3299 340.836 74.3299H345.055V76.9682C345.062 77.0487 345.086 77.1312 345.131 77.2059C345.291 77.4868 345.652 77.5831 345.932 77.422L346.227 77.2511L351.121 74.4085C351.211 74.3574 351.311 74.3299 351.414 74.3299H357.164C358.178 74.3299 359 73.5029 359 72.4833V62.3466C359 61.327 358.178 60.5 357.164 60.5ZM357.828 72.4833C357.828 72.8526 357.531 73.1512 357.164 73.1512H351.068C350.99 73.1512 350.91 73.1689 350.842 73.2102H350.84L348.912 74.3299L346.227 75.8897V73.7406C346.227 73.4145 345.965 73.1512 345.641 73.1512H340.836C340.469 73.1512 340.172 72.8526 340.172 72.4833V62.3466C340.172 61.9773 340.469 61.6787 340.836 61.6787H357.164C357.531 61.6787 357.828 61.9773 357.828 62.3466V72.4833Z" fill="white"/>
</g>
<path d="M22 68.5C22 68.7652 22.1054 69.0196 22.2929 69.2071C22.4804 69.3946 22.7348 69.5 23 69.5C23.2652 69.5 23.5196 69.3946 23.7071 69.2071C23.8946 69.0196 24 68.7652 24 68.5C24 68.2348 23.8946 67.9804 23.7071 67.7929C23.5196 67.6054 23.2652 67.5 23 67.5C22.7348 67.5 22.4804 67.6054 22.2929 67.7929C22.1054 67.9804 22 68.2348 22 68.5Z" fill="white"/>
<path d="M26 68.5C26 68.7652 26.1054 69.0196 26.2929 69.2071C26.4804 69.3946 26.7348 69.5 27 69.5C27.2652 69.5 27.5196 69.3946 27.7071 69.2071C27.8946 69.0196 28 68.7652 28 68.5C28 68.2348 27.8946 67.9804 27.7071 67.7929C27.5196 67.6054 27.2652 67.5 27 67.5C26.7348 67.5 26.4804 67.6054 26.2929 67.7929C26.1054 67.9804 26 68.2348 26 68.5Z" fill="white"/>
<path d="M30 68.5C30 68.7652 30.1054 69.0196 30.2929 69.2071C30.4804 69.3946 30.7348 69.5 31 69.5C31.2652 69.5 31.5196 69.3946 31.7071 69.2071C31.8946 69.0196 32 68.7652 32 68.5C32 68.2348 31.8946 67.9804 31.7071 67.7929C31.5196 67.6054 31.2652 67.5 31 67.5C30.7348 67.5 30.4804 67.6054 30.2929 67.7929C30.1054 67.9804 30 68.2348 30 68.5Z" fill="white"/>
<path d="M35.1641 61.5H18.8359C17.8223 61.5 17 62.327 17 63.3466V73.4833C17 74.5029 17.8223 75.3299 18.8359 75.3299H23.0547V77.9682C23.0625 78.0487 23.0859 78.1312 23.1309 78.2059C23.291 78.4868 23.6523 78.5831 23.9316 78.422L24.2266 78.2511L29.1211 75.4085C29.2109 75.3574 29.3105 75.3299 29.4141 75.3299H35.1641C36.1777 75.3299 37 74.5029 37 73.4833V63.3466C37 62.327 36.1777 61.5 35.1641 61.5ZM35.8281 73.4833C35.8281 73.8526 35.5312 74.1512 35.1641 74.1512H29.0684C28.9902 74.1512 28.9102 74.1689 28.8418 74.2102H28.8398L26.9121 75.3299L24.2266 76.8897V74.7406C24.2266 74.4145 23.9648 74.1512 23.6406 74.1512H18.8359C18.4688 74.1512 18.1719 73.8526 18.1719 73.4833V63.3466C18.1719 62.9773 18.4688 62.6787 18.8359 62.6787H35.1641C35.5312 62.6787 35.8281 62.9773 35.8281 63.3466V73.4833Z" fill="white"/>
<path d="M99 68.5C99 68.7652 99.1054 69.0196 99.2929 69.2071C99.4804 69.3946 99.7348 69.5 100 69.5C100.265 69.5 100.52 69.3946 100.707 69.2071C100.895 69.0196 101 68.7652 101 68.5C101 68.2348 100.895 67.9804 100.707 67.7929C100.52 67.6054 100.265 67.5 100 67.5C99.7348 67.5 99.4804 67.6054 99.2929 67.7929C99.1054 67.9804 99 68.2348 99 68.5Z" fill="white"/>
<path d="M103 68.5C103 68.7652 103.105 69.0196 103.293 69.2071C103.48 69.3946 103.735 69.5 104 69.5C104.265 69.5 104.52 69.3946 104.707 69.2071C104.895 69.0196 105 68.7652 105 68.5C105 68.2348 104.895 67.9804 104.707 67.7929C104.52 67.6054 104.265 67.5 104 67.5C103.735 67.5 103.48 67.6054 103.293 67.7929C103.105 67.9804 103 68.2348 103 68.5Z" fill="white"/>
<path d="M107 68.5C107 68.7652 107.105 69.0196 107.293 69.2071C107.48 69.3946 107.735 69.5 108 69.5C108.265 69.5 108.52 69.3946 108.707 69.2071C108.895 69.0196 109 68.7652 109 68.5C109 68.2348 108.895 67.9804 108.707 67.7929C108.52 67.6054 108.265 67.5 108 67.5C107.735 67.5 107.48 67.6054 107.293 67.7929C107.105 67.9804 107 68.2348 107 68.5Z" fill="white"/>
<path d="M112.164 61.5H95.8359C94.8223 61.5 94 62.327 94 63.3466V73.4833C94 74.5029 94.8223 75.3299 95.8359 75.3299H100.055V77.9682C100.062 78.0487 100.086 78.1312 100.131 78.2059C100.291 78.4868 100.652 78.5831 100.932 78.422L101.227 78.2511L106.121 75.4085C106.211 75.3574 106.311 75.3299 106.414 75.3299H112.164C113.178 75.3299 114 74.5029 114 73.4833V63.3466C114 62.327 113.178 61.5 112.164 61.5ZM112.828 73.4833C112.828 73.8526 112.531 74.1512 112.164 74.1512H106.068C105.99 74.1512 105.91 74.1689 105.842 74.2102H105.84L103.912 75.3299L101.227 76.8897V74.7406C101.227 74.4145 100.965 74.1512 100.641 74.1512H95.8359C95.4688 74.1512 95.1719 73.8526 95.1719 73.4833V63.3466C95.1719 62.9773 95.4688 62.6787 95.8359 62.6787H112.164C112.531 62.6787 112.828 62.9773 112.828 63.3466V73.4833Z" fill="white"/>
<path d="M176 68.5C176 68.7652 176.105 69.0196 176.293 69.2071C176.48 69.3946 176.735 69.5 177 69.5C177.265 69.5 177.52 69.3946 177.707 69.2071C177.895 69.0196 178 68.7652 178 68.5C178 68.2348 177.895 67.9804 177.707 67.7929C177.52 67.6054 177.265 67.5 177 67.5C176.735 67.5 176.48 67.6054 176.293 67.7929C176.105 67.9804 176 68.2348 176 68.5Z" fill="white"/>
<path d="M180 68.5C180 68.7652 180.105 69.0196 180.293 69.2071C180.48 69.3946 180.735 69.5 181 69.5C181.265 69.5 181.52 69.3946 181.707 69.2071C181.895 69.0196 182 68.7652 182 68.5C182 68.2348 181.895 67.9804 181.707 67.7929C181.52 67.6054 181.265 67.5 181 67.5C180.735 67.5 180.48 67.6054 180.293 67.7929C180.105 67.9804 180 68.2348 180 68.5Z" fill="white"/>
<path d="M184 68.5C184 68.7652 184.105 69.0196 184.293 69.2071C184.48 69.3946 184.735 69.5 185 69.5C185.265 69.5 185.52 69.3946 185.707 69.2071C185.895 69.0196 186 68.7652 186 68.5C186 68.2348 185.895 67.9804 185.707 67.7929C185.52 67.6054 185.265 67.5 185 67.5C184.735 67.5 184.48 67.6054 184.293 67.7929C184.105 67.9804 184 68.2348 184 68.5Z" fill="white"/>
<path d="M189.164 61.5H172.836C171.822 61.5 171 62.327 171 63.3466V73.4833C171 74.5029 171.822 75.3299 172.836 75.3299H177.055V77.9682C177.062 78.0487 177.086 78.1312 177.131 78.2059C177.291 78.4868 177.652 78.5831 177.932 78.422L178.227 78.2511L183.121 75.4085C183.211 75.3574 183.311 75.3299 183.414 75.3299H189.164C190.178 75.3299 191 74.5029 191 73.4833V63.3466C191 62.327 190.178 61.5 189.164 61.5ZM189.828 73.4833C189.828 73.8526 189.531 74.1512 189.164 74.1512H183.068C182.99 74.1512 182.91 74.1689 182.842 74.2102H182.84L180.912 75.3299L178.227 76.8897V74.7406C178.227 74.4145 177.965 74.1512 177.641 74.1512H172.836C172.469 74.1512 172.172 73.8526 172.172 73.4833V63.3466C172.172 62.9773 172.469 62.6787 172.836 62.6787H189.164C189.531 62.6787 189.828 62.9773 189.828 63.3466V73.4833Z" fill="white"/>
<defs>
<filter id="filter0_i_340_2109" x="231" y="0" width="138" height="140" filterUnits="userSpaceOnUse" color-interpolation-filters="sRGB">
<feFlood flood-opacity="0" result="BackgroundImageFix"/>
<feBlend mode="normal" in="SourceGraphic" in2="BackgroundImageFix" result="shape"/>
<feColorMatrix in="SourceAlpha" type="matrix" values="0 0 0 0 0 0 0 0 0 0 0 0 0 0 0 0 0 0 127 0" result="hardAlpha"/>
<feOffset dy="2"/>
<feGaussianBlur stdDeviation="12.25"/>
<feComposite in2="hardAlpha" operator="arithmetic" k2="-1" k3="1"/>
<feColorMatrix type="matrix" values="0 0 0 0 0.286275 0 0 0 0 0.294118 0 0 0 0 0.921569 0 0 0 0.5 0"/>
<feBlend mode="normal" in2="shape" result="effect1_innerShadow_340_2109"/>
</filter>
</defs>
</svg>
