<svg width="36" height="36" viewBox="0 0 36 36" fill="none" xmlns="http://www.w3.org/2000/svg">
<rect width="36" height="36" rx="18" fill="url(#paint0_linear_340_2138)"/>
<path d="M22.1585 14.1964C21.3937 13.8465 20.5735 13.5887 19.7159 13.441C19.7003 13.4382 19.6847 13.4453 19.6767 13.4596C19.5712 13.6466 19.4544 13.8907 19.3725 14.0825C18.4502 13.9448 17.5326 13.9448 16.6292 14.0825C16.5473 13.8864 16.4262 13.6466 16.3203 13.4596C16.3122 13.4458 16.2966 13.4387 16.281 13.441C15.424 13.5882 14.6038 13.846 13.8385 14.1964C13.8318 14.1993 13.8262 14.204 13.8224 14.2102C12.2667 16.5276 11.8405 18.7881 12.0496 21.0205C12.0505 21.0314 12.0567 21.0419 12.0652 21.0485C13.0916 21.8001 14.0859 22.2563 15.0616 22.5588C15.0773 22.5635 15.0938 22.5578 15.1037 22.545C15.3346 22.2307 15.5403 21.8993 15.7167 21.5508C15.7271 21.5304 15.7172 21.5062 15.6959 21.4981C15.3696 21.3747 15.0588 21.2242 14.7599 21.0532C14.7362 21.0395 14.7343 21.0058 14.7561 20.9896C14.819 20.9426 14.8819 20.8937 14.942 20.8443C14.9528 20.8353 14.968 20.8334 14.9808 20.8391C16.9446 21.7331 19.0708 21.7331 21.0115 20.8391C21.0243 20.8329 21.0394 20.8348 21.0507 20.8439C21.1108 20.8932 21.1737 20.9426 21.2371 20.9896C21.2589 21.0058 21.2574 21.0395 21.2338 21.0532C20.9349 21.2275 20.6241 21.3747 20.2973 21.4976C20.276 21.5057 20.2665 21.5304 20.2769 21.5508C20.4571 21.8988 20.6629 22.2302 20.8894 22.5445C20.8989 22.5578 20.9159 22.5635 20.9315 22.5588C21.9121 22.2563 22.9063 21.8001 23.9327 21.0485C23.9417 21.0419 23.9474 21.0319 23.9483 21.021C24.1985 18.44 23.5292 16.1981 22.1741 14.2107C22.1708 14.204 22.1651 14.1993 22.1585 14.1964ZM16.01 19.6612C15.4187 19.6612 14.9316 19.1199 14.9316 18.4552C14.9316 17.7905 15.4093 17.2493 16.01 17.2493C16.6154 17.2493 17.0979 17.7953 17.0884 18.4552C17.0884 19.1199 16.6107 19.6612 16.01 19.6612ZM19.9974 19.6612C19.4061 19.6612 18.9189 19.1199 18.9189 18.4552C18.9189 17.7905 19.3967 17.2493 19.9974 17.2493C20.6028 17.2493 21.0853 17.7953 21.0758 18.4552C21.0758 19.1199 20.6028 19.6612 19.9974 19.6612Z" fill="white"/>
<defs>
<linearGradient id="paint0_linear_340_2138" x1="18" y1="0" x2="18" y2="36" gradientUnits="userSpaceOnUse">
<stop stop-color="#494BEB"/>
<stop offset="1" stop-color="#5F2985"/>
</linearGradient>
</defs>
</svg>
