<svg width="20" height="20" viewBox="0 0 20 20" fill="none" xmlns="http://www.w3.org/2000/svg">
<g clip-path="url(#clip0_532_883)">
<path d="M10 18.3333C14.6025 18.3333 18.3333 14.6025 18.3333 10C18.3333 5.3975 14.6025 1.66667 10 1.66667C5.3975 1.66667 1.66667 5.3975 1.66667 10C1.66667 14.6025 5.3975 18.3333 10 18.3333ZM10 20C4.4775 20 0 15.5225 0 10C0 4.4775 4.4775 0 10 0C15.5225 0 20 4.4775 20 10C20 15.5225 15.5225 20 10 20ZM10.8333 10.4908V5.83083C10.8333 5.3775 10.46 5 10 5C9.53667 5 9.16667 5.37167 9.16667 5.83083V10.8358C9.16596 10.944 9.18666 11.0512 9.22756 11.1513C9.26847 11.2514 9.32877 11.3425 9.405 11.4192L11.7733 13.7875C11.8506 13.8643 11.9423 13.9251 12.0431 13.9664C12.1439 14.0076 12.2519 14.0286 12.3608 14.0281C12.4697 14.0275 12.5775 14.0055 12.6779 13.9632C12.7783 13.9209 12.8693 13.8592 12.9458 13.7817C13.1011 13.6264 13.1887 13.4162 13.1898 13.1966C13.1909 12.9771 13.1053 12.766 12.9517 12.6092L10.8333 10.4908Z" fill="white" fill-opacity="0.5"/>
</g>
<defs>
<clipPath id="clip0_532_883">
<rect width="20" height="20" fill="white"/>
</clipPath>
</defs>
</svg>
