<svg width="38" height="41" viewBox="0 0 38 41" fill="none" xmlns="http://www.w3.org/2000/svg">
<g opacity="0.5">
<path d="M1.8999 13.8193H37.9999V38.4193C37.9999 39.5239 37.1045 40.4193 35.9999 40.4193H3.8999C2.79533 40.4193 1.8999 39.5239 1.8999 38.4193V13.8193Z" fill="url(#paint0_linear_532_864)" fill-opacity="0.5"/>
<path d="M26.6548 0.872827C27.1418 0.581719 27.7373 0.463762 28.3325 0.543725C28.925 0.62371 29.4444 0.890675 29.7935 1.29275C30.7622 2.40839 31.9067 4.23567 31.9067 6.58474C31.9068 7.01005 31.9529 7.73014 31.8853 8.1199C28.4161 8.1245 10.9269 8.14498 7.70166 8.1199C7.63621 7.73643 7.60011 7.00273 7.6001 6.58474C7.6001 4.23345 8.75541 2.40839 9.72412 1.29275C10.0731 0.888392 10.5899 0.623773 11.1851 0.543725C11.7803 0.465955 12.3758 0.581805 12.8628 0.872827L17.9478 3.91091H21.5708L23.7056 2.63357C23.9651 2.47812 24.3246 2.52416 24.5142 2.73708C24.5852 2.81716 24.6225 2.90927 24.6265 3.00076L24.6128 2.90896C24.5959 2.84873 24.5637 2.79035 24.5171 2.73708L25.2759 2.28103C25.0893 2.06793 25.1462 1.77484 25.4048 1.6199L26.6548 0.872827ZM22.9976 7.8074C22.9968 7.80899 22.9963 7.81069 22.9956 7.81228C23.221 7.80942 23.4714 7.80864 23.7407 7.80642C23.4664 7.80702 23.2159 7.80641 22.9976 7.8074ZM30.6421 7.79861C30.4312 7.8007 30.017 7.79898 29.48 7.79958C29.9203 7.80193 30.3154 7.80367 30.6411 7.8074C30.6417 7.80451 30.6415 7.80149 30.6421 7.79861ZM30.7134 7.33474C30.7421 7.09245 30.7603 6.84314 30.7603 6.58669C30.7603 6.26636 30.7339 5.95709 30.6899 5.65896C30.7336 5.95621 30.7602 6.26445 30.7603 6.58376C30.7603 6.84116 30.7423 7.0916 30.7134 7.33474ZM23.2427 6.98025C23.261 6.85271 23.2729 6.72044 23.2729 6.58376V6.58474C23.2729 6.72116 23.2609 6.85293 23.2427 6.98025ZM22.6157 4.71951C22.7088 4.84507 22.802 4.98733 22.8882 5.14431L22.7544 4.9197C22.7087 4.84904 22.6622 4.78218 22.6157 4.71951ZM24.5913 3.17947C24.5659 3.23685 24.5273 3.29087 24.4751 3.33767C24.5011 3.31452 24.524 3.28976 24.5435 3.26345C24.563 3.23695 24.5795 3.20917 24.5923 3.18044L24.5913 3.17947ZM30.6694 7.6404C30.6769 7.59567 30.6853 7.5509 30.6919 7.50564C30.6853 7.5509 30.677 7.59567 30.6694 7.6404ZM23.2271 7.08474C23.2333 7.05033 23.2376 7.01538 23.2427 6.98025C23.2376 7.01538 23.2333 7.05033 23.2271 7.08474Z" fill="url(#paint1_linear_532_864)" fill-opacity="0.5"/>
<path d="M0 10.1194C0 9.01482 0.895431 8.11938 2 8.11938H35.91C36.9958 8.11938 37.8832 8.98565 37.9095 10.0711L38 13.8194H0V10.1194Z" fill="url(#paint2_linear_532_864)" fill-opacity="0.5"/>
<mask id="mask0_532_864" style="mask-type:alpha" maskUnits="userSpaceOnUse" x="1" y="13" width="37" height="28">
<path d="M1.65234 13.5024H38V38.551C38 39.6556 37.1046 40.5511 36 40.5511H6.65235C3.89093 40.5511 1.65234 38.3125 1.65234 35.5511V13.5024Z" fill="#AE3AFF"/>
</mask>
<g mask="url(#mask0_532_864)">
<path d="M19.0989 9.70264H38.2905V43.9026H19.0989V9.70264Z" fill="url(#paint3_linear_532_864)" fill-opacity="0.5"/>
</g>
</g>
<defs>
<linearGradient id="paint0_linear_532_864" x1="19.9499" y1="13.8193" x2="19.9499" y2="40.4193" gradientUnits="userSpaceOnUse">
<stop stop-color="#B6B6B6"/>
<stop offset="1" stop-color="white" stop-opacity="0.1"/>
</linearGradient>
<linearGradient id="paint1_linear_532_864" x1="7.59107" y1="4.84426" x2="31.6855" y2="4.84426" gradientUnits="userSpaceOnUse">
<stop stop-color="#EEEEEE"/>
<stop offset="0.384102" stop-color="#999999"/>
<stop offset="0.423077" stop-color="#EDEDED"/>
<stop offset="0.593797" stop-color="#989898"/>
<stop offset="0.639423" stop-color="#E9E9E9"/>
<stop offset="1" stop-color="#969696"/>
</linearGradient>
<linearGradient id="paint2_linear_532_864" x1="0" y1="11.0881" x2="37.8623" y2="11.0881" gradientUnits="userSpaceOnUse">
<stop stop-color="#F9F9F9"/>
<stop offset="0.501072" stop-color="#A0A0A0"/>
<stop offset="0.532452" stop-color="#767676"/>
<stop offset="1" stop-color="#737373"/>
</linearGradient>
<linearGradient id="paint3_linear_532_864" x1="28.6947" y1="12.8693" x2="28.6947" y2="40.4193" gradientUnits="userSpaceOnUse">
<stop stop-color="#C0A0FF"/>
<stop offset="1" stop-color="#EFEFEF" stop-opacity="0"/>
</linearGradient>
</defs>
</svg>
