<svg width="28" height="28" viewBox="0 0 28 28" fill="none" xmlns="http://www.w3.org/2000/svg">
<path d="M14.0557 17.4912C14.6077 17.4914 15.0555 17.9392 15.0557 18.4912V26.1104C15.0557 26.6625 14.6078 27.1101 14.0557 27.1104H13.9941C13.4421 27.1101 12.9941 26.6625 12.9941 26.1104V18.4912C12.9943 17.9392 13.4422 17.4914 13.9941 17.4912H14.0557ZM5.81055 17.4912C6.36252 17.4914 6.81035 17.9392 6.81055 18.4912V23.3623C6.81043 23.9143 6.36257 24.3621 5.81055 24.3623H5.74902C5.19685 24.3623 4.74914 23.9145 4.74902 23.3623V18.4912C4.74922 17.9391 5.1969 17.4913 5.74902 17.4912H5.81055ZM18.1787 17.4912C18.7307 17.4914 19.1785 17.9392 19.1787 18.4912V23.3623C19.1787 23.9144 18.7308 24.3621 18.1787 24.3623H18.1172C17.5651 24.3622 17.1172 23.9145 17.1172 23.3623V18.4912C17.1174 17.9392 17.5652 17.4914 18.1172 17.4912H18.1787ZM22.3018 17.4912C22.8537 17.4914 23.3016 17.9392 23.3018 18.4912V23.3623C23.3017 23.9144 22.8538 24.3621 22.3018 24.3623H22.2402C21.688 24.3622 21.2403 23.9145 21.2402 23.3623V18.4912C21.2404 17.9391 21.6881 17.4913 22.2402 17.4912H22.3018ZM9.93262 17.4912C10.4846 17.4914 10.9324 17.9392 10.9326 18.4912V21.9883C10.9325 22.5403 10.4846 22.9881 9.93262 22.9883H9.87207C9.31989 22.9883 8.87224 22.5404 8.87207 21.9883V18.4912C8.87227 17.9391 9.31991 17.4912 9.87207 17.4912H9.93262ZM21.9883 1C23.0925 1.00023 23.9881 1.89573 23.9883 3V7.87207H25.7363C26.2885 7.87207 26.7362 8.31991 26.7363 8.87207V15.1172C26.7363 15.6695 26.2886 16.1172 25.7363 16.1172H3L2.89746 16.1123C2.39337 16.0609 2 15.6348 2 15.1172V8.87207C2.00014 8.35452 2.39342 7.92828 2.89746 7.87695L3 7.87207H4.74902V3C4.7492 1.96451 5.53636 1.11299 6.54492 1.01074L6.74902 1H21.9883ZM3.5 14.6172H25.2363V9.37207H23.9883V9.93262H4.74902V9.37207H3.5V14.6172ZM6.74902 2.5C6.473 2.5 6.24921 2.72402 6.24902 3V7.87207H22.4883V3C22.4881 2.72416 22.2641 2.50023 21.9883 2.5H6.74902Z" fill="white"/>
</svg>
