<svg width="28" height="28" viewBox="0 0 28 28" fill="none" xmlns="http://www.w3.org/2000/svg">
<path d="M21.3151 3.06096C22.7151 3.86946 22.8551 5.99046 22.0904 8.88846L20.3981 8.44396C20.9739 6.25996 20.8794 4.83021 20.4401 4.57646C20.0464 4.34896 18.9264 4.84596 17.4879 6.18296C16.4816 7.11746 15.4159 8.36521 14.3816 9.81771H14.5304C21.6039 9.81771 27.3036 11.5695 27.3036 14.352C27.3036 15.969 25.5361 17.152 22.6434 17.9395L22.1831 16.2507C24.3619 15.6557 25.5536 14.8612 25.5536 14.352C25.5536 13.897 24.5631 13.1777 22.6854 12.6002C20.5591 11.9457 17.6454 11.5677 14.5304 11.5677C14.0824 11.5677 13.6379 11.5747 13.2004 11.5887C12.5843 12.5726 12.0143 13.5846 11.4924 14.6215C11.6919 14.996 11.9001 15.3705 12.1171 15.745C13.6746 18.4452 15.4596 20.778 17.0906 22.2917C18.5291 23.6287 19.6474 24.1275 20.0411 23.9C20.4681 23.6532 20.5731 22.2847 20.0376 20.1777C19.6999 18.8477 19.1381 17.3252 18.3926 15.7327L19.9781 14.9907C20.7674 16.6777 21.3676 18.3035 21.7334 19.7472C22.4509 22.563 22.2934 24.621 20.9161 25.4155C18.5064 26.8067 14.1384 22.7485 10.6016 16.62L10.5806 16.5885C10.0575 17.7909 9.63949 19.0362 9.33112 20.3107C8.89362 22.2252 9.02137 23.4432 9.41512 23.6707C9.84212 23.9157 11.0811 23.3225 12.6369 21.8052L13.8584 23.0582C11.7759 25.0882 9.91562 25.9807 8.54012 25.1845C6.50137 24.0085 7.14012 19.665 9.52887 14.6442C9.09312 13.7797 8.70637 12.931 8.37037 12.1102C7.64937 12.2502 6.97912 12.413 6.37362 12.6002C4.49587 13.1777 3.50537 13.897 3.50537 14.352C3.50537 14.8455 4.63937 15.6207 6.73062 16.2105L6.25637 17.894C3.45987 17.1065 1.75537 15.941 1.75537 14.352C1.75537 12.5495 4.14587 11.181 7.75087 10.439C6.59062 6.94596 6.58187 4.19146 8.14287 3.29021C9.54287 2.48171 11.4504 3.42146 13.5784 5.53196L12.3464 6.77446C10.7434 5.18546 9.45887 4.55196 9.01787 4.80571C8.62412 5.03321 8.49462 6.25121 8.93387 8.16571C9.07387 8.78346 9.26637 9.44496 9.50787 10.138C10.3654 10.0225 11.2701 9.93496 12.2134 9.88071C15.4894 4.88796 19.1749 1.82546 21.3134 3.06096H21.3151ZM10.4021 11.7987L10.1571 11.8285C10.2761 12.1102 10.4021 12.3955 10.5334 12.6842C10.6839 12.4077 10.8396 12.1312 10.9989 11.8547L11.0724 11.727C10.8466 11.748 10.6226 11.7725 10.4021 11.797V11.7987Z" fill="white"/>
</svg>
