<svg width="25" height="25" viewBox="0 0 25 25" fill="none" xmlns="http://www.w3.org/2000/svg">
<path d="M16.175 12.8193C17.6805 13.3936 18.7502 14.8505 18.7502 16.5576V19.5889L18.7434 19.8457C18.6139 22.4026 16.564 24.4526 14.0071 24.582L13.7502 24.5889H6.25024C3.48892 24.5888 1.25035 22.3502 1.25024 19.5889V16.5576C1.25024 14.8508 2.3195 13.3939 3.82446 12.8193C4.08189 13.2856 4.37065 13.7222 4.6897 14.1221C3.57909 14.3767 2.75024 15.3698 2.75024 16.5576V19.5889C2.75035 21.5217 4.31735 23.0888 6.25024 23.0889H13.7502C15.6832 23.0889 17.2501 21.5218 17.2502 19.5889V16.5576C17.2502 15.3694 16.421 14.3763 15.3098 14.1221C15.6289 13.7222 15.9176 13.2856 16.175 12.8193ZM18.637 2.52246C18.7974 2.20156 19.188 2.07132 19.509 2.23145C21.3195 3.13688 22.5246 5.21196 22.5247 7.5C22.5246 9.39228 21.4205 10.7413 20.6682 11.585C21.0148 11.8348 21.4645 12.1931 21.9221 12.6602C22.8854 13.6433 23.9299 15.1463 24.0852 17.1367C24.2313 19.0101 23.9462 20.2888 23.592 21.123C23.4156 21.5385 23.2248 21.8386 23.0676 22.042C22.9893 22.1433 22.9188 22.2202 22.8645 22.2754C22.8376 22.3028 22.8148 22.3258 22.7961 22.3428C22.7869 22.3511 22.7776 22.3583 22.7708 22.3643C22.7676 22.367 22.7646 22.3699 22.762 22.3721C22.7607 22.3732 22.7592 22.375 22.7581 22.376L22.7561 22.377L22.7551 22.3779C22.7515 22.3742 22.7158 22.3313 22.343 21.875L22.7542 22.3779C22.4762 22.6046 22.0671 22.5638 21.8401 22.2861C21.6419 22.0431 21.6479 21.699 21.8381 21.4648L21.929 21.374C21.9281 21.3746 21.9267 21.3754 21.926 21.376L21.9377 21.3643C21.9573 21.3444 21.9928 21.3059 22.0383 21.2471C22.1296 21.129 22.2641 20.9251 22.3958 20.6152C22.658 19.9975 22.9203 18.9316 22.7883 17.2383C22.6654 15.662 21.8355 14.4298 20.9934 13.5703C20.5751 13.1434 20.1634 12.8185 19.8577 12.6016C19.7056 12.4937 19.5802 12.4128 19.4954 12.3604C19.4532 12.3343 19.4202 12.3147 19.3997 12.3027C19.3896 12.297 19.3814 12.2934 19.3772 12.291C19.3761 12.2903 19.3749 12.2894 19.3743 12.2891L19.3704 12.2861C19.3376 12.2678 19.3057 12.2463 19.2756 12.2217C19.2743 12.2205 19.273 12.2189 19.2717 12.2178L19.2659 12.2139C19.2361 12.1886 19.2091 12.1604 19.1848 12.1309C19.1773 12.1217 19.1713 12.1111 19.1643 12.1016C19.1485 12.0799 19.1323 12.0584 19.1194 12.0352C19.1112 12.0204 19.1049 12.0045 19.0979 11.9893C19.0872 11.966 19.0774 11.9423 19.0696 11.918C19.0661 11.907 19.0627 11.8959 19.0598 11.8848C19.0528 11.8585 19.0479 11.8317 19.0442 11.8047C19.0422 11.7901 19.0412 11.7754 19.0403 11.7607C19.0386 11.7351 19.0389 11.7095 19.0403 11.6836C19.041 11.6709 19.0408 11.6582 19.0422 11.6455C19.0455 11.6163 19.0515 11.5875 19.0588 11.5586C19.0615 11.5482 19.0635 11.5376 19.0667 11.5273C19.0793 11.4863 19.0951 11.4454 19.1165 11.4062C19.1273 11.3864 19.1419 11.3688 19.1545 11.3506C19.1644 11.3363 19.1727 11.3203 19.1838 11.3066L19.8381 10.5527C20.5238 9.7623 21.2245 8.83453 21.2249 7.50098C21.2249 5.63934 20.2422 4.05075 18.928 3.39355C18.6074 3.233 18.477 2.8433 18.637 2.52246ZM9.84399 0.46875C13.7272 0.468859 16.8752 3.61682 16.8752 7.5C16.8751 11.3831 13.7271 14.5311 9.84399 14.5312C5.96081 14.5312 2.81285 11.3832 2.81274 7.5C2.81274 3.61675 5.96074 0.46875 9.84399 0.46875ZM9.84399 1.96875C6.78917 1.96875 4.31274 4.44517 4.31274 7.5C4.31285 10.5547 6.78924 13.0312 9.84399 13.0312C12.8987 13.0311 15.3751 10.5547 15.3752 7.5C15.3752 4.44524 12.8987 1.96886 9.84399 1.96875Z" fill="white"/>
</svg>
