<svg width="14" height="14" viewBox="0 0 14 14" fill="none" xmlns="http://www.w3.org/2000/svg">
<path d="M2.09118 5.33333C1.97928 5.76893 1.92283 6.21692 1.92318 6.66667C1.92318 7.12667 1.98184 7.57333 2.09118 8H3.98984C3.89996 7.11338 3.89996 6.21995 3.98984 5.33333H2.09118ZM2.63651 4H4.20051C4.37784 3.18867 4.63384 2.462 4.94784 1.85733C3.97996 2.32361 3.17465 3.07016 2.63651 4ZM12.4218 5.33333H10.5232C10.6131 6.21995 10.6131 7.11338 10.5232 8H12.4218C12.6463 7.12528 12.6463 6.20805 12.4218 5.33333ZM11.8765 4C11.3384 3.07016 10.5331 2.32361 9.56518 1.85733C9.87984 2.462 10.1352 3.18867 10.3125 4H11.8765ZM5.33118 5.33333C5.28123 5.77602 5.2563 6.22117 5.25651 6.66667C5.25651 7.12333 5.28184 7.57 5.33118 8H9.18184C9.28225 7.11395 9.28225 6.21939 9.18184 5.33333H5.33118ZM5.56984 4H8.94318C8.82185 3.49886 8.64684 3.01227 8.42118 2.54867C8.00251 1.712 7.55451 1.33333 7.25651 1.33333C6.95784 1.33333 6.51051 1.712 6.09184 2.54867C5.88184 2.97 5.70518 3.46 5.56984 4ZM2.63651 9.33333C3.17465 10.2632 3.97996 11.0097 4.94784 11.476C4.63318 10.8713 4.37784 10.1447 4.20051 9.33333H2.63651ZM11.8765 9.33333H10.3125C10.1352 10.1447 9.87918 10.8713 9.56518 11.476C10.5331 11.0097 11.3384 10.2632 11.8765 9.33333ZM5.56984 9.33333C5.70518 9.87333 5.88184 10.3633 6.09184 10.7847C6.51051 11.6213 6.95851 12 7.25651 12C7.55518 12 8.00251 11.6213 8.42118 10.7847C8.63118 10.3633 8.80784 9.87333 8.94318 9.33333H5.56984ZM7.25651 13.3333C3.57451 13.3333 0.589844 10.3487 0.589844 6.66667C0.589844 2.98467 3.57451 0 7.25651 0C10.9385 0 13.9232 2.98467 13.9232 6.66667C13.9232 10.3487 10.9385 13.3333 7.25651 13.3333Z" fill="white"/>
</svg>
