<svg width="107" height="29" viewBox="0 0 107 29" fill="none" xmlns="http://www.w3.org/2000/svg">
<g clip-path="url(#clip0_137_239)">
<path d="M107 10.1469V6.83196L96.1921 12.014L85.6719 6.9717L85.6832 6.96393L85.3804 6.82031V10.1469L92.732 13.6715L85.3804 17.196V20.5149L85.6757 20.3751H85.6719L96.1883 15.3289L106.708 20.3751L106.697 20.379L107 20.5226V17.196L99.6483 13.6715L107 10.1469Z" fill="white"/>
<path d="M34.2749 8.68359H32.0225V20.3325H39.4422V18.2636H34.2749V8.68359Z" fill="white"/>
<path d="M47.6379 15.0651C47.6379 16.1908 47.4146 17.0292 46.9641 17.5804C46.5136 18.1316 45.8852 18.4072 45.0788 18.4072C44.2725 18.4072 43.629 18.1316 43.1785 17.5804C42.728 17.0292 42.5046 16.1908 42.5046 15.0651V8.68359H40.2522V15.624C40.2522 16.6216 40.4453 17.4872 40.8276 18.2248C41.21 18.9623 41.7627 19.529 42.4895 19.9288C43.2125 20.3286 44.0757 20.5266 45.0826 20.5266C46.0896 20.5266 46.9338 20.3286 47.6606 19.9288C48.3875 19.529 48.9401 18.9623 49.3225 18.2248C49.7048 17.4872 49.8979 16.6216 49.8979 15.624V8.68359H47.6455V15.0651H47.6379Z" fill="white"/>
<path d="M55.4629 11.0705C55.9171 10.7522 56.4358 10.5931 57.015 10.5931C57.5639 10.5931 58.0371 10.7406 58.4346 11.0394C58.8321 11.3383 59.15 11.7498 59.3885 12.2816L61.2662 11.1675C60.9861 10.3834 60.475 9.73908 59.7292 9.23447C58.9835 8.72985 58.0939 8.47754 57.0604 8.47754C56.0269 8.47754 55.1373 8.72597 54.3045 9.2267C53.4716 9.72744 52.813 10.43 52.3322 11.3422C51.8514 12.2544 51.6091 13.3063 51.6091 14.4941C51.6091 15.6819 51.8514 16.7377 52.3397 17.6538C52.8281 18.5699 53.483 19.2802 54.312 19.7771C55.1411 20.2778 56.0572 20.5263 57.0604 20.5263C58.0636 20.5263 58.9835 20.274 59.7292 19.7693C60.475 19.2647 60.9861 18.6204 61.2662 17.8363L59.3885 16.7222C59.15 17.254 58.8321 17.6655 58.4346 17.9644C58.0371 18.2632 57.5639 18.4107 57.015 18.4107C56.4358 18.4107 55.9171 18.2516 55.4629 17.9333C55.0086 17.615 54.649 17.157 54.384 16.5631C54.119 15.9692 53.9865 15.2782 53.9865 14.4941C53.9865 13.71 54.119 13.023 54.384 12.433C54.649 11.843 55.0086 11.3888 55.4629 11.0705Z" fill="white"/>
<path d="M72.5055 8.68359H69.6966L64.9797 14.1102V8.68359H62.7273V20.3325H64.9797V16.9127L66.5318 15.2087L70.0676 20.3325H72.9711L68.1445 13.4425L72.5055 8.68359Z" fill="white"/>
<path d="M78.4679 13.4581L75.7953 8.68359H73.1416L77.2717 15.7327V20.3325H79.5203V15.7482L83.4801 8.68359H81.0421L78.4679 13.4581Z" fill="white"/>
<path d="M8.28668 10.9772L0.904759 7.43323C0.484557 7.23138 0 7.5458 0 8.02324V18.003L2.17672 16.9589C2.46064 16.823 2.64613 16.528 2.64613 16.2058V11.2683L9.38829 14.5018L0 19.0006V20.8832C0 21.5159 0.325562 22.0982 0.859331 22.4126L11.5272 28.7281C12.1328 29.0891 12.8824 29.0891 13.4881 28.7281L14.0635 28.3865C14.1922 28.3555 14.3171 28.305 14.4421 28.2312L24.1824 22.4902C24.701 22.1836 25.019 21.6169 25.019 21.0074V19.1054L8.28668 10.9772ZM12.3297 26.073L3.00955 20.5533L12.5114 15.9962L12.3335 26.0692L12.3297 26.073Z" fill="white"/>
<path d="M4.308 7.67794L12.5114 2.82196L22.0133 8.44651L13.6281 12.4679L16.668 14.0051L17.8112 14.5834L25.0266 18.2322V10.9968V8.12045C25.0266 7.48773 24.6972 6.90548 24.1673 6.59107L13.4919 0.267817C12.8862 -0.0931786 12.1366 -0.0931786 11.5309 0.267817L1.01831 6.49403L3.55845 7.71287C3.79694 7.82932 4.07708 7.8138 4.308 7.67794Z" fill="white"/>
</g>
<defs>
<clipPath id="clip0_137_239">
<rect width="107" height="29" fill="white"/>
</clipPath>
</defs>
</svg>
