<svg width="16" height="16" viewBox="0 0 16 16" fill="none" xmlns="http://www.w3.org/2000/svg">
<path fill-rule="evenodd" clip-rule="evenodd" d="M3.73749 5.79963C4.04401 5.45018 4.55344 5.39867 4.9171 5.68589L4.93528 5.70025L5.02191 5.78277L7.99954 9.17756L10.9781 5.78274L11.0647 5.70025L11.0829 5.68589C11.4466 5.39867 11.956 5.45018 12.2625 5.79963C12.5792 6.16064 12.5792 6.72216 12.2625 7.08316L8.64961 11.2021C8.53943 11.3277 8.39876 11.4195 8.2409 11.4665L8.21786 11.4734L8.08148 11.5001H7.94283L7.91877 11.4977C7.75551 11.4819 7.60037 11.4188 7.46999 11.3159L7.45181 11.3015L7.36519 11.219L3.73749 7.08316C3.42084 6.72216 3.42084 6.16064 3.73749 5.79963Z" fill="white"/>
</svg>
