<svg width="16" height="16" viewBox="0 0 16 16" fill="none" xmlns="http://www.w3.org/2000/svg">
<path d="M14.5 2.66895V7.09961H14.499C14.4323 11.1361 11.7079 14.5267 8 15.5967C4.29208 14.5267 1.56772 11.1361 1.50098 7.09961H1.5V2.66309L7.99219 0.299805L14.5 2.66895ZM11.5303 5.46973C11.2374 5.17683 10.7626 5.17683 10.4697 5.46973L7 8.93945L6.03027 7.96973C5.73738 7.67683 5.26262 7.67683 4.96973 7.96973C4.67696 8.26263 4.67688 8.73742 4.96973 9.03027L6.46289 10.5234C6.7596 10.8198 7.24041 10.8197 7.53711 10.5234L11.5303 6.53027C11.8231 6.23742 11.823 5.76263 11.5303 5.46973Z" fill="url(#paint0_linear_137_324)"/>
<defs>
<linearGradient id="paint0_linear_137_324" x1="8" y1="0.299805" x2="8" y2="15.5967" gradientUnits="userSpaceOnUse">
<stop stop-color="#FFF4ED"/>
<stop offset="1" stop-color="#6A82FC"/>
</linearGradient>
</defs>
</svg>
